<svg width="48" height="48" viewBox="0 0 48 48" fill="none" xmlns="http://www.w3.org/2000/svg">
<rect x="0.5" y="0.5" width="47" height="47" rx="23.5" fill="white"/>
<rect x="0.5" y="0.5" width="47" height="47" rx="23.5" stroke="#D9D9D9"/>
<path d="M38.5219 23.4437C41.4938 15.6844 39.6625 9.74687 38.6125 8.04374C38.1969 7.36874 37.3969 7.18124 36.6594 7.41249C34.7157 8.02499 29.4688 12.3125 27.15 18.3125M9.47817 23.4437C6.50629 15.6844 8.33754 9.74687 9.38754 8.04374C9.80317 7.36874 10.6032 7.18124 11.3407 7.41249C13.2844 8.02499 18.5313 12.3125 20.85 18.3125" fill="#FFC022"/>
<path d="M39.6595 27.1125C39.097 18.9938 33.5126 13.2188 24.0001 13.2188C14.4876 13.2188 8.90323 18.9938 8.34073 27.1125C8.01261 31.8438 9.91886 35.8656 13.6814 38.4281C13.6814 38.4281 17.497 41.5156 24.0001 41.5969C30.5032 41.5156 34.3189 38.4281 34.3189 38.4281C38.0782 35.8656 39.9876 31.8438 39.6595 27.1125Z" fill="#FFC022"/>
<path opacity="0.47" d="M20.9125 19.0688C21.2656 19.3688 21.9812 19.325 22.3969 18.8438C22.9 18.2594 23.425 16.2906 23.0969 13.2469C21.6375 13.3 20.2563 13.5094 18.9688 13.8625C20.0094 15.5688 20.2594 18.5125 20.9125 19.0688ZM27.0875 19.0688C26.7344 19.3688 26.0187 19.325 25.6031 18.8438C25.1 18.2594 24.575 16.2906 24.9031 13.2469C26.3625 13.3 27.7437 13.5094 29.0312 13.8625C27.9906 15.5688 27.7406 18.5125 27.0875 19.0688Z" fill="#FF7043"/>
<path d="M14.7593 25.3719C14.7343 23.975 15.7155 22.8281 16.9468 22.8062C18.178 22.7844 18.9499 23.9281 18.9749 25.325C18.9999 26.7219 18.0186 27.8687 16.7874 27.8906C15.5561 27.9125 14.7843 26.7687 14.7593 25.3719ZM33.2405 25.3719C33.2655 23.975 32.2843 22.8281 31.053 22.8062C29.8218 22.7844 29.0499 23.9281 29.0249 25.325C28.9999 26.7219 29.9811 27.8687 31.2124 27.8906C32.4436 27.9125 33.2155 26.7687 33.2405 25.3719Z" fill="black"/>
<path d="M4.75005 27.0063C4.75005 27.0063 7.65942 26.4781 11.0094 28.2406M4.72192 30.9844C4.72192 30.9844 7.28755 29.8219 10.7344 30.4344M5.7188 34.4906C5.7188 34.4906 8.16255 32.8719 11.2657 32.5969M43.1157 26.3563C43.1157 26.3563 40.1907 25.925 36.9032 27.8M43.2782 30.3313C43.2782 30.3313 40.6751 29.2563 37.2501 29.9844M42.4 33.8719C42.4 33.8719 39.9032 32.3344 36.7938 32.1688" stroke="#9E9E9E" stroke-width="0.375" stroke-miterlimit="10" stroke-linecap="round"/>
<path d="M21.4874 29.1219C21.4718 28.2281 22.7562 27.7969 23.9718 27.7781C25.1874 27.7563 26.4937 28.1531 26.5093 29.0469C26.5249 29.9406 24.9906 31.1219 24.0249 31.1219C23.0593 31.1219 21.5031 30.0156 21.4874 29.1219Z" fill="black"/>
<path d="M26.4657 32.6094C26.497 32.6156 26.5282 32.6219 26.5626 32.6281C26.9688 32.7031 27.3438 32.7656 27.7188 32.9719C27.7688 33 27.8251 33.0344 27.8438 33.0938C27.8657 33.1531 27.8438 33.2219 27.822 33.2813C27.6876 33.6031 27.4376 33.8438 27.1876 34.0625C26.2001 34.9125 25.0001 35.5563 23.7563 35.4813C22.6813 35.4188 21.6438 34.7906 21.0063 33.8219C20.9751 33.775 20.947 33.725 20.9438 33.6688C20.9407 33.6094 20.9688 33.5531 21.0001 33.5063C21.1845 33.2281 21.4938 33.1031 21.772 32.9563C22.2563 32.7063 22.7001 32.3594 23.0782 31.9375C23.2532 31.7438 23.4188 31.5313 23.647 31.425C24.0501 31.2375 24.2126 31.5719 24.4907 31.7906C24.8032 32.0344 25.2001 32.2344 25.5688 32.3406C25.8688 32.425 26.1688 32.5438 26.4657 32.6094Z" fill="#EF7F9D"/>
<path d="M28.1157 32.7687C28.1157 32.7687 26.7345 35.7156 24.0845 35.7156C21.5438 35.7156 20.0532 32.7687 20.0532 32.7687" stroke="black" stroke-width="0.471875" stroke-miterlimit="10"/>
<path d="M16.7407 31.5219C16.7407 31.5219 18.0032 33.0594 20.4688 33.0594C23.4376 33.0594 24.197 29.7844 24.197 29.7844" stroke="black" stroke-width="0.5" stroke-miterlimit="10" stroke-linecap="round"/>
<path d="M31.2595 31.5219C31.2595 31.5219 29.997 33.0594 27.5313 33.0594C24.5626 33.0594 23.8032 29.7844 23.8032 29.7844" stroke="black" stroke-width="0.5" stroke-miterlimit="10" stroke-linecap="round"/>
<path d="M32.8 16.3219C32.3188 15.9188 32.3313 15.2688 32.6125 14.7094C33.2875 13.3625 34.9031 11.9656 35.475 11.5125C36.4125 10.7688 37.1375 10.5188 37.4156 11.7156C37.9313 13.9281 37.8906 16.9313 37.3375 18.5875C37.1438 19.1719 36.5438 19.4813 36.0813 19.0781L32.8 16.3219ZM15.2 16.3219C15.6813 15.9188 15.6688 15.2688 15.3875 14.7094C14.7125 13.3625 13.0969 11.9656 12.525 11.5125C11.5875 10.7688 10.8625 10.5188 10.5844 11.7156C10.0688 13.9281 10.1094 16.9313 10.6625 18.5875C10.8563 19.1719 11.4563 19.4813 11.9188 19.0781L15.2 16.3219Z" fill="#FFD1D1"/>
</svg>
