<svg width="48" height="48" viewBox="0 0 48 48" fill="none" xmlns="http://www.w3.org/2000/svg">
<rect x="0.5" y="0.5" width="47" height="47" rx="23.5" fill="white"/>
<rect x="0.5" y="0.5" width="47" height="47" rx="23.5" stroke="#D9D9D9"/>
<path d="M13.5156 19.875C17.0278 19.875 19.875 17.0278 19.875 13.5156C19.875 10.0034 17.0278 7.15625 13.5156 7.15625C10.0034 7.15625 7.15625 10.0034 7.15625 13.5156C7.15625 17.0278 10.0034 19.875 13.5156 19.875Z" fill="#61B2E4"/>
<path d="M12.1281 14.9031C10.7984 13.5156 8.94844 12.8797 7.15625 12.9953V13.6891C8.775 13.5734 10.3937 14.1516 11.6078 15.4234C12.8219 16.6375 13.4 18.3141 13.3422 19.875H14.0359C14.1516 18.0828 13.5156 16.2328 12.1281 14.9031ZM19.875 13.3422C18.2563 13.4 16.6375 12.8797 15.4234 11.6078C14.2094 10.3937 13.6312 8.71719 13.6891 7.15625H12.9953C12.9375 8.94844 13.5734 10.7406 14.9031 12.1281C16.2906 13.5156 18.0828 14.1516 19.875 14.0359V13.3422Z" fill="white"/>
<path d="M36.525 26.1188L37.1031 25.5406L35.7734 24.2109L38.0859 21.8984L38.9531 22.7656L39.5312 22.1875L38.664 21.3203L40.8609 19.1234L40.2828 18.5453L38.0859 20.7422L36.2359 18.8922L38.5484 16.5797L40.3406 18.3719L40.9187 17.7938L39.1265 16.0016L40.5718 14.5563L39.9937 13.9781L38.5484 15.4234L36.7562 13.5156L38.7796 11.4922L38.2015 10.9141L36.1781 12.9375L34.3281 11.0875L35.7734 9.64219L35.1953 9.06407L33.75 10.5094L31.9578 8.71719L31.3796 9.29532L33.1718 11.0875L30.8593 13.4L29.0093 11.55L31.2062 9.35313L30.6281 8.77501L28.4312 10.9719L27.564 10.1047L26.9859 10.6828L27.8531 11.55L25.5406 13.8625L24.2109 12.5328L23.6328 13.1109L24.9625 14.4406L22.65 16.7531L21.7828 15.8859L21.2046 16.4641L22.0718 17.3313L19.875 19.5281L20.4531 20.1063L22.65 17.9094L24.5 19.7594L22.1875 22.0719L20.3953 20.2797L19.8171 20.8578L21.6093 22.65L20.164 24.0953L20.7421 24.6734L22.1875 23.2281L24.0375 25.0781L22.014 27.1016L22.5921 27.6797L24.6156 25.6563L26.4656 27.5063L25.0203 28.9516L25.5984 29.5297L27.0437 28.0844L28.8359 29.8766L29.414 29.2984L27.6218 27.5063L29.9343 25.1938L31.7843 27.0438L29.5875 29.2406L30.1656 29.8188L32.3046 27.6219L33.1718 28.4891L33.75 27.9109L32.8828 27.0438L35.1953 24.7313L36.525 26.1188ZM37.5078 21.3203L35.1953 23.6328L33.3453 21.7828L35.6578 19.4703L37.5078 21.3203ZM29.8765 24.0953L28.0265 22.2453L30.339 19.9328L32.189 21.7828L29.8765 24.0953ZM27.9109 17.5047L29.7609 19.3547L27.4484 21.6672L25.5984 19.8172L27.9109 17.5047ZM30.8015 14.6141L32.6515 16.4641L30.339 18.7766L28.489 16.9266L30.8015 14.6141ZM30.9171 19.3547L33.2296 17.0422L35.0796 18.8922L32.7671 21.2047L30.9171 19.3547ZM37.9703 16.0016L35.6578 18.3141L33.8078 16.4641L36.1203 14.1516L37.9703 16.0016ZM33.6921 11.7234L35.5421 13.5734L33.2296 15.8859L31.4375 13.9781L33.6921 11.7234ZM28.3734 12.1859L30.2234 14.0359L27.9109 16.3484L26.0609 14.4984L28.3734 12.1859ZM23.1703 17.3891L25.4828 15.0766L27.3328 16.9266L25.0203 19.2391L23.1703 17.3891ZM22.7078 22.7078L25.0203 20.3953L26.8703 22.2453L24.5578 24.5578L22.7078 22.7078ZM26.9281 26.9859L25.0781 25.1359L27.3906 22.8234L29.2406 24.6734L26.9281 26.9859ZM32.3046 26.5234L30.4546 24.6734L32.7671 22.3609L34.6171 24.2109L32.3046 26.5234Z" fill="#D0D0D0"/>
<path d="M39.3579 10.3359C35.4267 6.40468 28.1423 7.21405 23.1704 12.1859C18.1985 17.1578 17.3892 24.3844 21.3204 28.3734C25.3095 32.3047 32.536 31.4953 37.5079 26.5234C42.4798 21.5515 43.2892 14.325 39.3579 10.3359ZM22.7657 26.9281C19.4126 23.575 20.1064 17.5047 24.3267 13.2844C28.547 9.06405 34.6173 8.3703 37.9704 11.7234C41.3235 15.0766 40.6298 21.1469 36.4095 25.3672C32.1892 29.5875 26.061 30.2812 22.7657 26.9281Z" fill="#FFC022"/>
<path d="M28.0267 30.8016C28.4313 30.8016 24.6735 29.4719 24.6735 29.4719C24.6735 29.4719 19.9329 31.6109 19.0079 30.6859C18.0829 29.7609 20.222 25.0203 20.222 25.0203C20.222 25.0203 18.8923 21.2625 18.8345 21.6672C18.6032 25.425 18.0251 29.125 16.2329 31.2062C16.0017 31.4953 15.6548 31.7844 15.6548 31.7844L16.7532 32.8828L17.8517 33.9812C17.8517 33.9812 18.1407 33.6344 18.4298 33.4031C20.5688 31.6687 24.2688 31.0328 28.0267 30.8016Z" fill="#FFC022"/>
<path d="M8.04077 38.7918L15.9299 30.9022L18.7511 33.7228L10.8603 41.6125L8.04077 38.7918Z" fill="#4D4F59"/>
<path d="M11.7813 35.0219L13.747 38.6641L14.961 37.45L12.9954 33.75L11.7813 35.0219ZM9.29541 37.5078L11.261 41.2078L12.4751 39.9359L10.5095 36.2938L9.29541 37.5078Z" fill="#4D4F59"/>
<path d="M8.02344 38.7797L10.7984 41.6125L11.2609 41.2078L9.29531 37.5078L8.02344 38.7797ZM10.5094 36.2938L12.475 39.9359L13.7469 38.6641L11.7812 35.0219L10.5094 36.2938ZM15.9438 30.8594L15.5391 31.2641L17.4469 34.9641L18.7188 33.6922L15.9438 30.8594Z" fill="#5F606C"/>
<path d="M14.2671 32.5359L16.2327 36.1781L17.4468 34.9641L15.539 31.2641L14.2671 32.5359Z" fill="#4D4F59"/>
<path d="M12.9954 33.75L14.961 37.45L16.2329 36.1781L14.2672 32.5359L12.9954 33.75Z" fill="#5F606C"/>
<path d="M7.76685 38.5271L8.66641 37.6281L11.9773 40.9396L11.0778 41.8386L7.76685 38.5271ZM14.7703 31.5352L15.6698 30.6357L18.9802 33.9483L18.0806 34.8473L14.7703 31.5352Z" fill="#4D4F59"/>
</svg>
