<svg width="48" height="48" viewBox="0 0 48 48" fill="none" xmlns="http://www.w3.org/2000/svg">
<rect x="0.5" y="0.5" width="47" height="47" rx="23.5" fill="white"/>
<rect x="0.5" y="0.5" width="47" height="47" rx="23.5" stroke="#D9D9D9"/>
<path d="M38.5219 22.4437C41.4938 14.6844 39.6625 8.74687 38.6125 7.04374C38.1969 6.36874 37.3969 6.18124 36.6594 6.41249C34.7157 7.02499 29.4688 11.3125 27.15 17.3125M9.47817 22.4437C6.50629 14.6844 8.33754 8.74687 9.38754 7.04374C9.80317 6.36874 10.6032 6.18124 11.3407 6.41249C13.2844 7.02499 18.5313 11.3125 20.85 17.3125" fill="#FFC022"/>
<path d="M39.6592 26.1125C39.0967 17.9938 33.5124 12.2188 23.9999 12.2188C14.4874 12.2188 8.90299 17.9938 8.34049 26.1125C8.01236 30.8438 9.91861 34.8656 13.6811 37.4281C13.6811 37.4281 17.4967 40.5156 23.9999 40.5969C30.503 40.5156 34.3186 37.4281 34.3186 37.4281C38.078 34.8656 39.9874 30.8438 39.6592 26.1125Z" fill="#FFC022"/>
<path opacity="0.47" d="M20.9125 18.0688C21.2656 18.3688 21.9812 18.325 22.3969 17.8438C22.9 17.2594 23.425 15.2906 23.0969 12.2469C21.6375 12.3 20.2562 12.5094 18.9688 12.8625C20.0094 14.5688 20.2594 17.5125 20.9125 18.0688ZM27.0875 18.0688C26.7344 18.3688 26.0187 18.325 25.6031 17.8438C25.1 17.2594 24.575 15.2906 24.9031 12.2469C26.3625 12.3 27.7437 12.5094 29.0312 12.8625C27.9906 14.5688 27.7406 17.5125 27.0875 18.0688Z" fill="#FF7043"/>
<path d="M42.2533 24.1969L36.9658 26.8M42.9096 28.0094L37.2377 28.9969M42.2533 33.0531L36.9658 31.2469M5.74707 24.1969L11.0346 26.8M5.09082 28.0094L10.7627 28.9969M5.74707 33.0531L11.0346 31.2469" stroke="#9E9E9E" stroke-width="0.375" stroke-miterlimit="10" stroke-linecap="round"/>
<path d="M14.1753 25.9563C14.0815 25.9563 13.9878 25.9375 13.8971 25.8969C13.8136 25.8606 13.7382 25.8081 13.675 25.7425C13.6119 25.6769 13.5623 25.5995 13.5292 25.5147C13.4961 25.4299 13.4801 25.3394 13.4821 25.2484C13.4841 25.1574 13.5041 25.0676 13.5409 24.9844C13.6503 24.7344 14.6659 22.5312 16.4628 22.5312C18.2378 22.5312 19.3284 24.6375 19.4471 24.8781C19.6159 25.2219 19.4753 25.6375 19.1315 25.8062C18.7878 25.975 18.4534 25.7687 18.2034 25.4906C17.9003 25.1531 17.2409 24.3969 16.4628 24.3969C15.6815 24.3969 15.0315 25.2062 14.8128 25.5375C14.6534 25.7781 14.4409 25.9563 14.1753 25.9563ZM33.8253 25.9563C33.919 25.9563 34.0128 25.9375 34.1034 25.8969C34.1869 25.8606 34.2623 25.8081 34.3255 25.7425C34.3886 25.6769 34.4382 25.5995 34.4713 25.5147C34.5044 25.4299 34.5204 25.3394 34.5184 25.2484C34.5164 25.1574 34.4964 25.0676 34.4596 24.9844C34.3503 24.7344 33.3346 22.5312 31.5378 22.5312C29.7628 22.5312 28.6721 24.6375 28.5534 24.8781C28.3846 25.2219 28.5253 25.6375 28.869 25.8062C29.2128 25.975 29.5471 25.7687 29.7971 25.4906C30.1003 25.1531 30.7596 24.3969 31.5378 24.3969C32.319 24.3969 32.969 25.2062 33.1878 25.5375C33.3471 25.7781 33.5596 25.9563 33.8253 25.9563ZM21.4878 28.0563C21.4721 27.1625 22.7565 26.7313 23.9721 26.7125C25.1878 26.6906 26.494 27.0875 26.5096 27.9812C26.5253 28.875 24.9909 30.0562 24.0253 30.0562C23.0596 30.0562 21.5034 28.95 21.4878 28.0563Z" fill="black"/>
<path d="M23.7909 36.8219C23.7093 36.8116 23.6306 36.7853 23.5593 36.7445C23.488 36.7037 23.4254 36.6492 23.3751 36.5842C23.3249 36.5191 23.288 36.4448 23.2666 36.3655C23.2451 36.2862 23.2396 36.2034 23.2502 36.1219C23.294 35.7813 23.6034 35.5812 23.9502 35.5812C25.4127 35.5812 25.7315 35.2625 25.744 34.95C25.7596 34.5313 25.2752 34.25 24.5315 34.0406C24.1721 33.9406 23.919 33.7313 23.9346 33.3563C23.9471 32.9906 24.219 32.825 24.5752 32.7531C24.8815 32.6906 25.1815 32.5781 25.4502 32.5031C25.969 32.3594 26.2846 31.5969 25.3159 31.0094C24.5627 30.5531 23.419 30.0281 22.5315 29.4688C22.8034 29.5188 24.5659 29.3438 24.9284 29.5688C25.3502 29.8344 26.1409 30.3125 26.5752 30.5594C27.0221 30.8156 27.3096 31.3094 27.3096 31.8219C27.3096 33.0219 26.0846 33.475 26.0846 33.475C26.8127 33.9406 26.9971 34.5 26.9971 34.9469C26.9971 35.4781 26.8346 35.9844 26.419 36.2688C25.3971 36.9688 23.9534 36.8438 23.7909 36.8219Z" fill="black"/>
<path d="M16.4625 37.175C19.1013 37.175 21.2406 35.0358 21.2406 32.3969C21.2406 29.758 19.1013 27.6187 16.4625 27.6187C13.8236 27.6187 11.6843 29.758 11.6843 32.3969C11.6843 35.0358 13.8236 37.175 16.4625 37.175Z" fill="url(#paint0_radial_25_1243)"/>
<path d="M31.8499 37.175C34.4888 37.175 36.628 35.0358 36.628 32.3969C36.628 29.758 34.4888 27.6187 31.8499 27.6187C29.211 27.6187 27.0718 29.758 27.0718 32.3969C27.0718 35.0358 29.211 37.175 31.8499 37.175Z" fill="url(#paint1_radial_25_1243)"/>
<path d="M32.7998 15.3219C32.3185 14.9188 32.331 14.2688 32.6123 13.7094C33.2873 12.3625 34.9029 10.9656 35.4748 10.5125C36.4123 9.76876 37.1373 9.51876 37.4154 10.7156C37.931 12.9281 37.8904 15.9313 37.3373 17.5875C37.1435 18.1719 36.5435 18.4813 36.081 18.0781L32.7998 15.3219ZM15.1998 15.3219C15.681 14.9188 15.6685 14.2688 15.3873 13.7094C14.7123 12.3625 13.0966 10.9656 12.5248 10.5125C11.5873 9.76876 10.8623 9.51876 10.5841 10.7156C10.0685 12.9281 10.1091 15.9313 10.6623 17.5875C10.856 18.1719 11.456 18.4813 11.9185 18.0781L15.1998 15.3219Z" fill="#FFD1D1"/>
<path d="M36.26 16.8613H34.625C34.5157 16.8608 34.4084 16.8318 34.3138 16.7771C34.2192 16.7224 34.1405 16.6438 34.0857 16.5493C34.0308 16.4548 34.0017 16.3475 34.0011 16.2382C34.0005 16.1289 34.0286 16.0213 34.0825 15.9263L35.1825 14H34.625C34.4592 14 34.3003 13.9342 34.1831 13.8169C34.0658 13.6997 34 13.5408 34 13.375C34 13.2092 34.0658 13.0503 34.1831 12.9331C34.3003 12.8158 34.4592 12.75 34.625 12.75H36.26C36.3693 12.7504 36.4766 12.7794 36.5712 12.8341C36.6658 12.8889 36.7445 12.9674 36.7993 13.062C36.8542 13.1565 36.8833 13.2638 36.8839 13.3731C36.8845 13.4824 36.8564 13.5899 36.8025 13.685L35.7025 15.6113H36.26C36.4258 15.6113 36.5847 15.6771 36.7019 15.7943C36.8192 15.9115 36.885 16.0705 36.885 16.2363C36.885 16.402 36.8192 16.561 36.7019 16.6782C36.5847 16.7954 36.4258 16.8613 36.26 16.8613ZM40.0994 14.3612H37.7494C37.6401 14.3607 37.5329 14.3316 37.4384 14.2769C37.3439 14.2221 37.2653 14.1435 37.2105 14.049C37.1557 13.9545 37.1266 13.8473 37.1261 13.738C37.1256 13.6288 37.1536 13.5213 37.2075 13.4263L39.0225 10.25H37.75C37.5842 10.25 37.4253 10.1842 37.3081 10.0669C37.1908 9.94973 37.125 9.79076 37.125 9.625C37.125 9.45924 37.1908 9.30027 37.3081 9.18306C37.4253 9.06585 37.5842 9 37.75 9H40.1C40.2093 9.00041 40.3166 9.02942 40.4112 9.08415C40.5058 9.13888 40.5845 9.21742 40.6393 9.31196C40.6942 9.4065 40.7233 9.51375 40.7239 9.62306C40.7245 9.73236 40.6964 9.8399 40.6425 9.935L38.8269 13.1112H40.0994C40.2651 13.1112 40.4241 13.1771 40.5413 13.2943C40.6585 13.4115 40.7244 13.5705 40.7244 13.7362C40.7244 13.902 40.6585 14.061 40.5413 14.1782C40.4241 14.2954 40.2651 14.3612 40.0994 14.3612ZM45.1881 17.4863H42.1256C42.0163 17.4858 41.909 17.4568 41.8144 17.4021C41.7198 17.3474 41.6412 17.2688 41.5863 17.1743C41.5314 17.0798 41.5023 16.9725 41.5017 16.8632C41.5012 16.7539 41.5292 16.6463 41.5831 16.5513L44.1119 12.125H42.1256C41.9599 12.125 41.8009 12.0592 41.6837 11.9419C41.5665 11.8247 41.5006 11.6658 41.5006 11.5C41.5006 11.3342 41.5665 11.1753 41.6837 11.0581C41.8009 10.9408 41.9599 10.875 42.1256 10.875H45.1894C45.2987 10.8754 45.406 10.9044 45.5006 10.9591C45.5952 11.0139 45.6738 11.0924 45.7287 11.187C45.7836 11.2815 45.8127 11.3888 45.8133 11.4981C45.8138 11.6074 45.7858 11.7149 45.7319 11.81L43.2025 16.2363H45.1894C45.3551 16.2363 45.5141 16.3021 45.6313 16.4193C45.7485 16.5365 45.8144 16.6955 45.8144 16.8613C45.8144 17.027 45.7485 17.186 45.6313 17.3032C45.5141 17.4204 45.3551 17.4863 45.1894 17.4863H45.1881Z" fill="#61B2E4" stroke="#61B2E4" stroke-width="0.025" stroke-miterlimit="10"/>
<defs>
<radialGradient id="paint0_radial_25_1243" cx="0" cy="0" r="1" gradientUnits="userSpaceOnUse" gradientTransform="translate(16.4619 32.3975) scale(5.19657 4.95349)">
<stop stop-color="#ED7770"/>
<stop offset="1" stop-color="#ED7770" stop-opacity="0"/>
</radialGradient>
<radialGradient id="paint1_radial_25_1243" cx="0" cy="0" r="1" gradientUnits="userSpaceOnUse" gradientTransform="translate(31.8515 32.3975) scale(5.19657 4.95349)">
<stop stop-color="#ED7770"/>
<stop offset="1" stop-color="#ED7770" stop-opacity="0"/>
</radialGradient>
</defs>
</svg>
