<svg width="32" height="32" xmlns="http://www.w3.org/2000/svg" xmlns:xlink="http://www.w3.org/1999/xlink" xml:space="preserve" overflow="hidden"><g transform="translate(-631 -389)"><path d="M648.832 409.568C649.039 409.663 649.271 409.685 649.492 409.629 649.712 409.574 649.907 409.446 650.045 409.265L650.4 408.8C650.586 408.552 650.828 408.35 651.106 408.211 651.383 408.072 651.69 408 652 408L655 408C655.53 408 656.039 408.211 656.414 408.586 656.789 408.961 657 409.47 657 410L657 413C657 413.53 656.789 414.039 656.414 414.414 656.039 414.789 655.53 415 655 415 650.226 415 645.648 413.104 642.272 409.728 638.896 406.352 637 401.774 637 397 637 396.47 637.211 395.961 637.586 395.586 637.961 395.211 638.47 395 639 395L642 395C642.53 395 643.039 395.211 643.414 395.586 643.789 395.961 644 396.47 644 397L644 400C644 400.31 643.928 400.617 643.789 400.894 643.65 401.172 643.448 401.414 643.2 401.6L642.732 401.951C642.548 402.091 642.419 402.291 642.366 402.515 642.313 402.74 642.339 402.976 642.44 403.184 643.807 405.96 646.054 408.205 648.832 409.568Z" stroke="#C3AB91" stroke-width="2" stroke-linecap="round" stroke-linejoin="round" fill="none"/></g></svg>