<svg width="32" height="32" xmlns="http://www.w3.org/2000/svg" xmlns:xlink="http://www.w3.org/1999/xlink" xml:space="preserve" overflow="hidden"><g transform="translate(-624 -344)"><path d="M640 370C645.523 370 650 365.523 650 360 650 354.477 645.523 350 640 350 634.477 350 630 354.477 630 360 630 365.523 634.477 370 640 370Z" stroke="#C3AB91" stroke-width="2" stroke-linecap="round" stroke-linejoin="round" fill="none"/><path d="M630 360 650 360M640 350C637.432 352.696 636 356.277 636 360 636 363.723 637.432 367.304 640 370 642.568 367.304 644 363.723 644 360 644 356.277 642.568 352.696 640 350Z" stroke="#C3AB91" stroke-width="2" stroke-linecap="round" stroke-linejoin="round" fill="none"/></g></svg>