<svg width="48" height="48" viewBox="0 0 48 48" fill="none" xmlns="http://www.w3.org/2000/svg">
<rect x="0.5" y="0.5" width="47" height="47" rx="23.5" fill="white"/>
<rect x="0.5" y="0.5" width="47" height="47" rx="23.5" stroke="#D9D9D9"/>
<path d="M14.8443 16.783C14.8443 16.783 13.1135 14.2269 11.9349 13.7905C10.7533 13.3541 9.52723 13.6391 8.98394 12.9295C8.43473 12.2111 8.14973 10.985 8.32488 10.1983C8.50004 9.41157 8.94832 8.81485 9.34019 8.72876C9.73207 8.64266 10.7711 9.19188 10.7711 9.19188C10.7711 9.19188 10.7266 7.85891 10.8572 7.37798C10.9879 6.89704 11.5371 6.39532 11.8191 6.22016C12.7335 5.65016 13.2174 6.08954 13.2174 6.08954C13.2174 6.08954 12.8671 9.15032 14.0041 10.5041C15.1411 11.8578 19.6447 16.5366 18.7689 16.5811C17.8961 16.6227 14.8443 16.783 14.8443 16.783Z" fill="#DDBCA8"/>
<path d="M14.9274 14.7761C14.9274 14.7761 12.9947 12.9622 12.3862 12.6445C11.7776 12.3269 10.5129 12.4902 10.0705 12.2586C9.47381 11.9469 8.82662 11.2789 8.77318 10.1953C8.71974 9.11172 9.02256 8.58031 10.0943 8.52984C10.9671 8.48828 11.4955 8.82078 11.733 8.58328C11.9705 8.34578 11.7597 6.7575 11.8904 6.49328C12.024 6.22906 12.3921 5.72734 13.3718 5.88469C14.3515 6.04203 14.773 6.9475 14.8265 7.18203C15.0462 8.135 14.8858 9.92516 15.1263 10.3497C15.5063 11.0177 18.0772 13.8736 18.0772 13.8736C18.0772 13.8736 14.9512 14.7227 14.9274 14.7761Z" fill="#FFEBCA"/>
<path d="M14.8503 14.12C10.6762 17.065 9.26609 21.147 9.41453 24.1781C9.54218 26.7847 10.4684 28.1889 11.9855 29.4447C13.5025 30.7005 14.4495 31.0508 15.0789 31.8999C15.7083 32.7489 16.59 36.2609 18.5494 38.1075C20.5087 39.9541 26.7669 43.6769 34.0581 37.1397C41.5631 30.4095 39.2534 23.6586 36.4806 21.1441C33.8028 18.7156 31.4753 18.5494 30.2819 17.0977C28.9133 15.4352 29.4328 14.7613 27.2122 12.9444C24.5937 10.8009 19.9892 10.4981 14.8503 14.12Z" fill="#FFC022"/>
<path d="M23.1688 23.8634C18.7691 27.3962 15.741 34.6905 21.0254 38.0986C24.9827 40.6487 30.6293 38.725 33.8445 35.7473C36.359 33.4198 39.5326 27.2478 36.5163 23.5844C33.8326 20.3247 27.8654 20.0931 23.1688 23.8634Z" fill="#FBD5B2"/>
<path d="M22.4474 14.6841C22.1653 14.402 21.7171 14.4258 21.3519 14.8563C20.9867 15.2867 20.9363 15.833 21.245 16.0794C21.6963 16.4445 22.1683 15.9874 22.4058 15.6727C22.6611 15.3283 22.768 15.0047 22.4474 14.6841ZM14.3308 18.1842C13.7727 18.0981 13.6005 18.6355 13.5797 19.0867C13.5589 19.538 13.4936 20.0545 14.0963 20.0961C14.6989 20.1377 14.8266 19.5172 14.8266 19.1075C14.8236 18.6978 14.883 18.2674 14.3308 18.1842ZM14.5 23.4241C13.9627 23.4003 13.7905 23.8545 13.8142 24.5195C13.838 25.1845 14.0517 25.5942 14.4169 25.5705C14.7821 25.5497 14.981 25.14 15.0196 24.5819C15.0611 23.9377 15.0166 23.4449 14.5 23.4241ZM16.4119 25.5705C16.0883 25.3389 15.6163 25.5052 15.4441 26.1731C15.26 26.8856 15.5391 27.1113 15.7677 27.2033C16.1328 27.3547 16.4119 26.9658 16.5396 26.5383C16.6702 26.1078 16.7147 25.7842 16.4119 25.5705Z" fill="#AB5931"/>
<path d="M29.0469 22.9669C28.6936 22.7264 26.1019 23.2727 23.614 25.6358C21.1262 27.9989 20.3009 29.9642 20.5473 30.6381C20.7937 31.312 22.48 31.2823 23.1569 31.2823C23.8337 31.2823 25.5764 31.2675 26.1345 31.2527C27.2389 31.223 27.2389 32.2947 26.1048 32.4491C25.1875 32.5737 22.667 32.6628 21.6547 33.0309C20.764 33.3545 19.9684 33.6128 19.9061 34.3194C19.8437 35.0259 20.9481 36.7745 22.7917 37.4187C24.6353 38.063 26.8114 37.8789 27.2092 37.5731C27.607 37.2673 27.8831 35.0883 27.9454 34.0759C28.0078 33.0636 27.9751 31.6208 28.744 31.6208C29.5129 31.6208 29.2962 33.4317 29.3259 34.168C29.3556 34.9042 29.2962 36.1926 29.694 36.5014C30.0919 36.8072 31.6801 36.0175 33.0695 34.6281C34.3283 33.3694 35.3406 32.0186 34.9725 31.5584C34.6044 31.0983 31.5673 31.0359 30.8311 31.0686C30.0948 31.0983 29.9731 29.8425 31.0151 29.8098C32.0572 29.7801 34.5747 29.9939 35.3733 29.5634C36.1719 29.133 37.1515 27.1706 35.8037 24.9619C34.4559 22.7531 32.8884 22.6908 32.2145 22.7531C31.5406 22.8155 31.2319 24.5937 30.9884 25.4547C30.742 26.3127 30.4986 27.9098 30.4065 28.278C30.3145 28.6461 29.5159 28.9519 29.4565 28.1562C29.3942 27.3576 29.5189 25.9475 29.5486 25.1489C29.5783 24.3503 29.6287 23.3676 29.0469 22.9669Z" fill="#EF7F9D"/>
<path d="M30.7956 32.173C30.7956 32.173 28.4027 30.1156 28.2187 30.362C28.0346 30.6084 27.6665 31.0359 27.6042 31.7128C27.5418 32.3867 27.7674 32.5975 27.7674 32.5975C27.7674 32.5975 29.997 35.5484 30.4868 36.1006C30.9767 36.6528 31.6713 37.6741 31.7337 38.1639C31.796 38.6538 31.5556 40.2895 31.7752 40.7972C32.0513 41.4414 32.5976 41.8689 33.4259 42.0263C33.8445 42.1064 35.3526 42.0055 35.7534 41.6047C36.1542 41.2039 36.3263 40.4647 36.3263 40.0966C36.3263 39.7284 36.1542 39.4613 36.552 39.2772C36.9498 39.0931 38.1313 39.2356 38.6835 38.9299C39.2357 38.6241 39.6662 37.965 39.6365 37.1961C39.6068 36.4302 38.5262 35.9106 38.4342 35.9106C38.3421 35.9106 30.7956 32.173 30.7956 32.173Z" fill="#DFBBAA"/>
<path d="M31.1013 29.2992C30.9677 29.2072 30.8905 29.1745 30.7896 29.1656C30.3502 29.13 29.7802 29.1686 29.133 29.5753C28.4532 29.9998 27.9841 30.6708 27.9841 30.6708C27.9841 30.6708 31.7455 35.302 32.084 35.7948C32.4224 36.2847 33.034 37.0833 33.034 37.4811C33.034 37.8789 32.8024 39.5117 32.9419 39.8739C33.1557 40.4261 33.9543 41.192 34.6905 41.192C35.7355 41.192 36.1423 40.622 36.2966 40.2212C36.451 39.8205 36.4421 38.6122 36.6855 38.0006C36.9913 37.2347 39.4732 37.8937 39.6276 37.4039C39.7819 36.9141 40.0046 35.587 38.9269 34.9636C38.1283 34.5034 36.1334 34.7498 36.1334 34.7498C36.1334 34.7498 31.4932 29.5634 31.1013 29.2992Z" fill="#FFEBCA"/>
</svg>
