<svg width="48" height="48" viewBox="0 0 48 48" fill="none" xmlns="http://www.w3.org/2000/svg">
<rect x="0.5" y="0.5" width="47" height="47" rx="23.5" fill="#0F766E"/>
<rect x="0.5" y="0.5" width="47" height="47" rx="23.5" stroke="#115E59"/>
<path d="M38.5219 22.4437C41.4938 14.6844 39.6625 8.74687 38.6125 7.04374C38.1969 6.36874 37.3969 6.18124 36.6594 6.41249C34.7157 7.02499 29.4688 11.3125 27.15 17.3125M9.47817 22.4437C6.50629 14.6844 8.33754 8.74687 9.38754 7.04374C9.80317 6.36874 10.6032 6.18124 11.3407 6.41249C13.2844 7.02499 18.5313 11.3125 20.85 17.3125" fill="white"/>
<path d="M39.6595 26.1125C39.097 17.9938 33.5126 12.2188 24.0001 12.2188C14.4876 12.2188 8.90323 17.9938 8.34073 26.1125C8.01261 30.8438 9.91886 34.8656 13.6814 37.4281C13.6814 37.4281 17.497 40.5156 24.0001 40.5969C30.5032 40.5156 34.3189 37.4281 34.3189 37.4281C38.0782 34.8656 39.9876 30.8438 39.6595 26.1125Z" fill="white"/>
<path opacity="0.47" d="M20.9125 18.0688C21.2656 18.3688 21.9812 18.325 22.3969 17.8438C22.9 17.2594 23.425 15.2906 23.0969 12.2469C21.6375 12.3 20.2563 12.5094 18.9688 12.8625C20.0094 14.5688 20.2594 17.5125 20.9125 18.0688ZM27.0875 18.0688C26.7344 18.3688 26.0187 18.325 25.6031 17.8438C25.1 17.2594 24.575 15.2906 24.9031 12.2469C26.3625 12.3 27.7437 12.5094 29.0312 12.8625C27.9906 14.5688 27.7406 17.5125 27.0875 18.0688Z" fill="#FF7043"/>
<path d="M14.7593 24.3719C14.7343 22.975 15.7155 21.8281 16.9468 21.8062C18.178 21.7844 18.9499 22.9281 18.9749 24.325C18.9999 25.7219 18.0186 26.8687 16.7874 26.8906C15.5561 26.9125 14.7843 25.7687 14.7593 24.3719ZM33.2405 24.3719C33.2655 22.975 32.2843 21.8281 31.053 21.8062C29.8218 21.7844 29.0499 22.9281 29.0249 24.325C28.9999 25.7219 29.9811 26.8687 31.2124 26.8906C32.4436 26.9125 33.2155 25.7687 33.2405 24.3719Z" fill="black"/>
<path d="M4.75005 26.0063C4.75005 26.0063 7.65942 25.4781 11.0094 27.2406M4.72192 29.9844C4.72192 29.9844 7.28755 28.8219 10.7344 29.4344M5.7188 33.4906C5.7188 33.4906 8.16255 31.8719 11.2657 31.5969M43.1157 25.3563C43.1157 25.3563 40.1907 24.925 36.9032 26.8M43.2782 29.3313C43.2782 29.3313 40.6751 28.2563 37.2501 28.9844M42.4 32.8719C42.4 32.8719 39.9032 31.3344 36.7938 31.1688" stroke="#9E9E9E" stroke-width="0.375" stroke-miterlimit="10" stroke-linecap="round"/>
<path d="M21.4874 28.1219C21.4718 27.2281 22.7562 26.7969 23.9718 26.7781C25.1874 26.7563 26.4937 27.1531 26.5093 28.0469C26.5249 28.9406 24.9906 30.1219 24.0249 30.1219C23.0593 30.1219 21.5031 29.0156 21.4874 28.1219Z" fill="black"/>
<path d="M26.4657 31.6094C26.497 31.6156 26.5282 31.6219 26.5626 31.6281C26.9688 31.7031 27.3438 31.7656 27.7188 31.9719C27.7688 32 27.8251 32.0344 27.8438 32.0938C27.8657 32.1531 27.8438 32.2219 27.822 32.2813C27.6876 32.6031 27.4376 32.8438 27.1876 33.0625C26.2001 33.9125 25.0001 34.5563 23.7563 34.4813C22.6813 34.4188 21.6438 33.7906 21.0063 32.8219C20.9751 32.775 20.947 32.725 20.9438 32.6688C20.9407 32.6094 20.9688 32.5531 21.0001 32.5063C21.1845 32.2281 21.4938 32.1031 21.772 31.9563C22.2563 31.7063 22.7001 31.3594 23.0782 30.9375C23.2532 30.7438 23.4188 30.5313 23.647 30.425C24.0501 30.2375 24.2126 30.5719 24.4907 30.7906C24.8032 31.0344 25.2001 31.2344 25.5688 31.3406C25.8688 31.425 26.1688 31.5438 26.4657 31.6094Z" fill="#EF7F9D"/>
<path d="M28.1157 31.7687C28.1157 31.7687 26.7345 34.7156 24.0845 34.7156C21.5438 34.7156 20.0532 31.7687 20.0532 31.7687" stroke="black" stroke-width="0.471875" stroke-miterlimit="10"/>
<path d="M16.7407 30.5219C16.7407 30.5219 18.0032 32.0594 20.4688 32.0594C23.4376 32.0594 24.197 28.7844 24.197 28.7844" stroke="black" stroke-width="0.5" stroke-miterlimit="10" stroke-linecap="round"/>
<path d="M31.2595 30.5219C31.2595 30.5219 29.997 32.0594 27.5313 32.0594C24.5626 32.0594 23.8032 28.7844 23.8032 28.7844" stroke="black" stroke-width="0.5" stroke-miterlimit="10" stroke-linecap="round"/>
<path d="M32.8 15.3219C32.3188 14.9188 32.3313 14.2688 32.6125 13.7094C33.2875 12.3625 34.9031 10.9656 35.475 10.5125C36.4125 9.76876 37.1375 9.51876 37.4156 10.7156C37.9313 12.9281 37.8906 15.9313 37.3375 17.5875C37.1438 18.1719 36.5438 18.4813 36.0813 18.0781L32.8 15.3219ZM15.2 15.3219C15.6813 14.9188 15.6688 14.2688 15.3875 13.7094C14.7125 12.3625 13.0969 10.9656 12.525 10.5125C11.5875 9.76876 10.8625 9.51876 10.5844 10.7156C10.0688 12.9281 10.1094 15.9313 10.6625 17.5875C10.8563 18.1719 11.4563 18.4813 11.9188 18.0781L15.2 15.3219Z" fill="#FFD1D1"/>
</svg>
