<svg width="48" height="48" viewBox="0 0 48 48" fill="none" xmlns="http://www.w3.org/2000/svg">
<rect x="0.5" y="0.5" width="47" height="47" rx="23.5" fill="#0F766E"/>
<rect x="0.5" y="0.5" width="47" height="47" rx="23.5" stroke="#115E59"/>
<path d="M13.0156 19.375C16.5278 19.375 19.375 16.5278 19.375 13.0156C19.375 9.50344 16.5278 6.65625 13.0156 6.65625C9.50344 6.65625 6.65625 9.50344 6.65625 13.0156C6.65625 16.5278 9.50344 19.375 13.0156 19.375Z" fill="#61B2E4"/>
<path d="M11.6281 14.4031C10.2984 13.0156 8.44844 12.3797 6.65625 12.4953V13.1891C8.275 13.0734 9.89375 13.6516 11.1078 14.9234C12.3219 16.1375 12.9 17.8141 12.8422 19.375H13.5359C13.6516 17.5828 13.0156 15.7328 11.6281 14.4031ZM19.375 12.8422C17.7563 12.9 16.1375 12.3797 14.9234 11.1078C13.7094 9.89375 13.1313 8.21719 13.1891 6.65625H12.4953C12.4375 8.44844 13.0734 10.2406 14.4031 11.6281C15.7906 13.0156 17.5828 13.6516 19.375 13.5359V12.8422Z" fill="white"/>
<path d="M36.025 25.6188L36.6031 25.0406L35.2734 23.7109L37.5859 21.3984L38.4531 22.2656L39.0312 21.6875L38.164 20.8203L40.3609 18.6234L39.7828 18.0453L37.5859 20.2422L35.7359 18.3922L38.0484 16.0797L39.8406 17.8719L40.4187 17.2938L38.6265 15.5016L40.0718 14.0563L39.4937 13.4781L38.0484 14.9234L36.2562 13.0156L38.2796 10.9922L37.7015 10.4141L35.6781 12.4375L33.8281 10.5875L35.2734 9.14219L34.6953 8.56407L33.25 10.0094L31.4578 8.21719L30.8796 8.79532L32.6718 10.5875L30.3593 12.9L28.5093 11.05L30.7062 8.85313L30.1281 8.27501L27.9312 10.4719L27.064 9.60469L26.4859 10.1828L27.3531 11.05L25.0406 13.3625L23.7109 12.0328L23.1328 12.6109L24.4625 13.9406L22.15 16.2531L21.2828 15.3859L20.7046 15.9641L21.5718 16.8313L19.375 19.0281L19.9531 19.6063L22.15 17.4094L24 19.2594L21.6875 21.5719L19.8953 19.7797L19.3171 20.3578L21.1093 22.15L19.664 23.5953L20.2421 24.1734L21.6875 22.7281L23.5375 24.5781L21.514 26.6016L22.0921 27.1797L24.1156 25.1563L25.9656 27.0063L24.5203 28.4516L25.0984 29.0297L26.5437 27.5844L28.3359 29.3766L28.914 28.7984L27.1218 27.0063L29.4343 24.6938L31.2843 26.5438L29.0875 28.7406L29.6656 29.3188L31.8046 27.1219L32.6718 27.9891L33.25 27.4109L32.3828 26.5438L34.6953 24.2313L36.025 25.6188ZM37.0078 20.8203L34.6953 23.1328L32.8453 21.2828L35.1578 18.9703L37.0078 20.8203ZM29.3765 23.5953L27.5265 21.7453L29.839 19.4328L31.689 21.2828L29.3765 23.5953ZM27.4109 17.0047L29.2609 18.8547L26.9484 21.1672L25.0984 19.3172L27.4109 17.0047ZM30.3015 14.1141L32.1515 15.9641L29.839 18.2766L27.989 16.4266L30.3015 14.1141ZM30.4171 18.8547L32.7296 16.5422L34.5796 18.3922L32.2671 20.7047L30.4171 18.8547ZM37.4703 15.5016L35.1578 17.8141L33.3078 15.9641L35.6203 13.6516L37.4703 15.5016ZM33.1921 11.2234L35.0421 13.0734L32.7296 15.3859L30.9375 13.4781L33.1921 11.2234ZM27.8734 11.6859L29.7234 13.5359L27.4109 15.8484L25.5609 13.9984L27.8734 11.6859ZM22.6703 16.8891L24.9828 14.5766L26.8328 16.4266L24.5203 18.7391L22.6703 16.8891ZM22.2078 22.2078L24.5203 19.8953L26.3703 21.7453L24.0578 24.0578L22.2078 22.2078ZM26.4281 26.4859L24.5781 24.6359L26.8906 22.3234L28.7406 24.1734L26.4281 26.4859ZM31.8046 26.0234L29.9546 24.1734L32.2671 21.8609L34.1171 23.7109L31.8046 26.0234Z" fill="#D0D0D0"/>
<path d="M38.8579 9.83593C34.9267 5.90468 27.6423 6.71405 22.6704 11.6859C17.6985 16.6578 16.8892 23.8844 20.8204 27.8734C24.8095 31.8047 32.036 30.9953 37.0079 26.0234C41.9798 21.0516 42.7892 13.825 38.8579 9.83593ZM22.2657 26.4281C18.9126 23.075 19.6064 17.0047 23.8267 12.7844C28.047 8.56405 34.1173 7.8703 37.4704 11.2234C40.8235 14.5766 40.1298 20.6469 35.9095 24.8672C31.6892 29.0875 25.561 29.7812 22.2657 26.4281Z" fill="white"/>
<path d="M27.5267 30.3016C27.9313 30.3016 24.1735 28.9719 24.1735 28.9719C24.1735 28.9719 19.4329 31.1109 18.5079 30.1859C17.5829 29.2609 19.722 24.5203 19.722 24.5203C19.722 24.5203 18.3923 20.7625 18.3345 21.1672C18.1032 24.925 17.5251 28.625 15.7329 30.7062C15.5017 30.9953 15.1548 31.2844 15.1548 31.2844L16.2532 32.3828L17.3517 33.4812C17.3517 33.4812 17.6407 33.1344 17.9298 32.9031C20.0688 31.1687 23.7688 30.5328 27.5267 30.3016Z" fill="white"/>
<path d="M7.54077 38.2918L15.4299 30.4022L18.2511 33.2228L10.3603 41.1125L7.54077 38.2918Z" fill="white"/>
<path d="M11.2813 34.5219L13.247 38.1641L14.461 36.95L12.4954 33.25L11.2813 34.5219ZM8.79541 37.0078L10.761 40.7078L11.9751 39.4359L10.0095 35.7938L8.79541 37.0078Z" fill="white"/>
<path d="M7.52344 38.2797L10.2984 41.1125L10.7609 40.7078L8.79531 37.0078L7.52344 38.2797ZM10.0094 35.7938L11.975 39.4359L13.2469 38.1641L11.2812 34.5219L10.0094 35.7938ZM15.4438 30.3594L15.0391 30.7641L16.9469 34.4641L18.2188 33.1922L15.4438 30.3594Z" fill="white"/>
<path d="M13.7671 32.0359L15.7327 35.6781L16.9468 34.4641L15.039 30.7641L13.7671 32.0359Z" fill="white"/>
<path d="M12.4954 33.25L14.461 36.95L15.7329 35.6781L13.7672 32.0359L12.4954 33.25Z" fill="white"/>
<path d="M7.26685 38.0271L8.16641 37.1281L11.4773 40.4396L10.5778 41.3386L7.26685 38.0271ZM14.2703 31.0352L15.1698 30.1357L18.4802 33.4483L17.5806 34.3473L14.2703 31.0352Z" fill="white"/>
</svg>
