<svg width="48" height="48" viewBox="0 0 48 48" fill="none" xmlns="http://www.w3.org/2000/svg">
<rect x="0.5" y="0.5" width="47" height="47" rx="23.5" fill="#0F766E"/>
<rect x="0.5" y="0.5" width="47" height="47" rx="23.5" stroke="#115E59"/>
<path d="M33.0606 11.4748C33.785 11.1245 34.2867 10.3853 34.2867 9.52734C34.2867 8.95414 34.059 8.40442 33.6537 7.9991C33.2484 7.59379 32.6987 7.36609 32.1255 7.36609C31.5523 7.36609 31.0026 7.59379 30.5972 7.9991C30.1919 8.40442 29.9642 8.95414 29.9642 9.52734C29.9642 10.3972 30.4778 11.1423 31.217 11.4867C30.362 16.118 29.0499 19.5647 24.1663 20.3009C24.1663 20.3009 25.4814 26.8767 31.6327 26.8767C37.7839 26.8767 38.4074 20.3662 38.4074 20.3662C33.4169 20.6216 32.9953 14.3486 33.0606 11.4748Z" fill="#FFD1D1"/>
<path d="M15.3135 11.4748C14.5891 11.1245 14.0874 10.3853 14.0874 9.52734C14.0874 8.95414 14.3151 8.40442 14.7204 7.9991C15.1257 7.59379 15.6754 7.36609 16.2486 7.36609C16.8218 7.36609 17.3716 7.59379 17.7769 7.9991C18.1822 8.40442 18.4099 8.95414 18.4099 9.52734C18.4099 10.3972 17.8963 11.1423 17.1571 11.4867C18.0121 16.118 19.3243 19.5647 24.2079 20.3009C24.2079 20.3009 22.8927 26.8767 16.7414 26.8767C10.5902 26.8767 9.96973 20.3692 9.96973 20.3692C14.9572 20.6216 15.3788 14.3486 15.3135 11.4748Z" fill="#FFD1D1"/>
<path d="M31.5496 26.8767C31.5763 26.8767 31.603 26.8797 31.6297 26.8797C33.3249 26.8797 34.5985 26.3839 35.5544 25.6684L31.5496 26.8767Z" fill="white"/>
<path d="M40.3994 10.0053C39.4108 9.87172 38.4667 10.8128 38.2946 12.1012C38.1877 12.9058 38.4044 13.6569 38.823 14.1408L38.1105 17.0947C38.1105 17.0947 37.021 24.0742 31.5169 25.4517C27.1172 26.5531 25.523 18.4989 25.1371 16.0111C25.9742 15.5955 26.5531 14.7345 26.5531 13.7341C26.5531 12.3298 25.4161 11.1928 24.0119 11.1928C22.6077 11.1928 21.4706 12.3298 21.4706 13.7341C21.4706 14.7405 22.0585 15.6103 22.9105 16.02C22.6047 18.4752 21.2569 26.2622 16.5069 25.4487C11.6856 24.6205 9.5808 16.5009 9.09393 14.2922C9.67283 13.8172 9.99643 12.98 9.87768 12.0805C9.70549 10.7891 8.68424 9.86281 7.59768 10.0083C6.51112 10.1537 5.7719 11.3175 5.94408 12.6059C6.06877 13.5441 6.64471 14.2892 7.36612 14.5712L11.1424 38.0333C11.1424 38.0333 14.4377 40.6369 24.0119 40.6369C33.5861 40.6369 36.8814 38.0333 36.8814 38.0333L40.6666 14.5089C41.2781 14.1883 41.7591 13.4669 41.8778 12.5822C42.053 11.2908 41.391 10.1389 40.3994 10.0053Z" fill="white"/>
<path d="M24.1306 34.6608C25.7275 34.6608 27.0221 33.1176 27.0221 31.2141C27.0221 29.3105 25.7275 27.7673 24.1306 27.7673C22.5336 27.7673 21.239 29.3105 21.239 31.2141C21.239 33.1176 22.5336 34.6608 24.1306 34.6608Z" fill="#61B2E4"/>
<path d="M24.1306 28.6194C24.2434 28.7441 24.3443 28.9726 24.1306 29.418C23.9168 29.8633 22.765 30.4659 22.5542 30.5876C22.3434 30.7123 22.2039 30.6559 22.1386 30.6055C21.8268 30.3561 21.9456 29.792 22.1475 29.4476C22.5809 28.7025 23.4982 27.9336 24.1306 28.6194Z" fill="#61B2E4"/>
<path d="M23.9168 32.4995C23.5903 32.6569 22.5185 33.1348 22.8718 33.7019C23.0796 34.0373 23.5101 34.1798 23.9049 34.1977C24.2998 34.2155 24.6887 34.0908 25.039 33.9097C26.7015 33.0488 26.8351 30.7866 26.5115 30.6144C26.179 30.4363 25.9534 30.8964 25.7812 31.0923C25.2575 31.6785 24.6241 32.1565 23.9168 32.4995Z" fill="#61B2E4"/>
<path d="M40.058 28.3938C40.5211 25.8317 38.7992 25.1905 38.7992 25.1905C38.7992 25.1905 37.6889 24.9886 37.1664 27.8713C36.6439 30.751 37.7542 30.9528 37.7542 30.9528C37.7542 30.9528 39.5919 30.9558 40.058 28.3938Z" fill="#61B2E4"/>
<path d="M39.2919 26.0662C39.6957 26.6066 39.2177 27.4051 38.4428 27.9366C38.2143 28.0939 37.9114 28.0345 37.8669 27.9039C37.7422 27.5298 37.7957 27.1053 37.9619 26.7461C38.4547 25.6684 39.0871 25.7931 39.2919 26.0662Z" fill="#61B2E4"/>
<path d="M7.89754 28.4709C7.43145 25.9119 9.15629 25.2677 9.15629 25.2677C9.15629 25.2677 10.2666 25.0658 10.7891 27.9484C11.3116 30.8281 10.2013 31.03 10.2013 31.03C10.2013 31.03 8.36067 31.033 7.89754 28.4709Z" fill="#61B2E4"/>
<path d="M9.6847 26.1375C10.0825 26.4344 9.91923 26.8233 9.61939 27.0935C9.27798 27.4052 9.01673 27.7466 8.7258 28.0999C8.68127 28.1533 8.6308 28.2127 8.55955 28.2275C8.42298 28.2572 8.31314 28.1177 8.26861 27.9841C8.14095 27.61 8.1647 27.1706 8.3547 26.8263C8.89502 25.8436 9.53033 26.0217 9.6847 26.1375Z" fill="#61B2E4"/>
<path d="M34.6844 30.8756C34.4796 32.0423 33.5444 32.8528 32.5914 32.6866C31.6385 32.5203 31.5079 31.5258 31.7127 30.3591C31.9175 29.1923 32.3777 28.2987 33.3277 28.465C34.2807 28.6312 34.8893 29.7119 34.6844 30.8756ZM14.0338 30.8756C14.2386 32.0423 15.1738 32.8528 16.1268 32.6866C17.0797 32.5203 17.2104 31.5258 17.0055 30.3591C16.8007 29.1923 16.3405 28.2987 15.3905 28.465C14.4405 28.6312 13.8319 29.7119 14.0338 30.8756Z" fill="#FFD1D1"/>
<path d="M15.4143 30.0978C15.1976 30.3413 14.6692 30.8311 14.4822 30.457C14.2268 29.9464 14.5801 29.1745 14.9839 28.9192C15.3876 28.6639 15.7172 28.8658 15.7736 29.0944C15.8418 29.3853 15.6073 29.8781 15.4143 30.0978ZM32.3065 30.843C32.0126 30.7984 31.98 29.7861 32.7697 28.9905C33.1467 28.6105 33.687 29.0617 33.5504 29.6703C33.4198 30.2492 32.8439 30.9261 32.3065 30.843Z" fill="#FFA8A4"/>
<path d="M37.404 34.1561C35.6257 35.0467 31.5466 37.4188 24.0149 37.4188C16.4832 37.4188 12.4041 35.0467 10.6258 34.1561C10.6258 34.1561 9.98755 34.4975 9.98755 34.8538V37.588C9.98755 37.9531 10.1805 38.2886 10.4952 38.4756C11.8846 39.295 16.118 41.2306 24.0179 41.2306C31.9177 41.2306 36.1511 39.295 37.5405 38.4756C37.6949 38.3844 37.8229 38.2546 37.9119 38.099C38.0009 37.9434 38.0479 37.7673 38.0482 37.588V34.8538C38.0422 34.4975 37.404 34.1561 37.404 34.1561Z" fill="white"/>
<path d="M16.7564 37.9056C17.5876 38.0689 17.84 38.1402 17.7835 38.6033C17.6678 39.5147 15.7767 39.298 14.6575 39.0041C12.3448 38.3955 11.8757 37.7542 11.8757 37.1813C11.8757 36.6558 12.2795 36.5935 12.9029 36.8131C13.6481 37.0774 14.8 37.5227 16.7564 37.9056Z" fill="#FFF59D"/>
<path d="M37.4039 34.7558C37.4039 34.7558 32.4846 37.5405 24.0148 37.5405C15.545 37.5405 10.6257 34.7558 10.6257 34.7558" stroke="#FFD1D1" stroke-width="0.5" stroke-miterlimit="10" stroke-linecap="round"/>
<path d="M13.0068 19.7161C14.5862 18.588 15.4352 16.5662 15.5095 13.3481C15.5154 13.0572 15.5985 12.9711 15.7559 12.9533C16.0082 12.9266 16.0498 13.1551 16.0468 13.3184C15.9756 16.7919 15.5332 18.962 13.7816 20.1852C13.6956 20.2445 13.081 20.6186 12.8198 20.3603C12.5081 20.0575 12.9059 19.7873 13.0068 19.7161ZM14.4526 9.61343C14.4021 9.07609 14.5268 8.10827 15.937 7.6689C16.3496 7.54124 16.6049 7.74312 16.6524 7.90046C16.7712 8.29234 16.4268 8.44671 16.2695 8.49718C15.1859 8.84749 15.1324 9.38781 14.9098 9.73218C14.6871 10.0766 14.4704 9.77671 14.4526 9.61343ZM28.2216 19.0036C29.6496 17.7359 30.5966 16.3198 31.2201 13.0958C31.2765 12.8108 31.3596 12.7336 31.514 12.7395C31.7663 12.7455 31.7782 12.98 31.7515 13.1403C31.2231 16.5781 30.7213 17.5578 28.9609 19.5083C28.762 19.728 28.2781 19.9269 28.0049 19.6983C27.7585 19.4934 28.0435 19.1639 28.2216 19.0036ZM30.3235 9.64015C30.2731 9.10281 30.3977 8.13499 31.8079 7.69562C32.2206 7.56796 32.4759 7.76984 32.5234 7.92718C32.6421 8.31906 32.2977 8.47343 32.1404 8.5239C31.0568 8.87421 31.0034 9.41452 30.7807 9.7589C30.561 10.1033 30.3413 9.80343 30.3235 9.64015Z" fill="white"/>
<path d="M14.3784 26.2622C10.9287 24.6977 9.91338 20.6156 9.37307 18.8433C9.30182 18.6088 9.33744 18.3861 9.57197 18.3148C9.80651 18.2436 9.94604 18.395 10.0203 18.6295C10.4121 19.915 11.9351 24.2078 15.079 25.428C15.3076 25.517 15.6638 25.7338 15.4709 26.1048C15.3432 26.3453 14.9335 26.5145 14.3784 26.2622ZM8.76447 12.312C8.59822 11.9677 8.52994 11.6411 7.62447 11.2641C7.39588 11.1691 7.24447 10.9583 7.30682 10.7208C7.36916 10.4833 7.60666 10.3052 7.95104 10.3645C9.07026 10.5575 9.31369 11.6945 9.36119 12.0894C9.40572 12.4694 8.93369 12.6564 8.76447 12.312ZM33.7584 26.2622C37.2081 24.6977 38.2234 20.6156 38.7637 18.8433C38.8349 18.6088 38.7993 18.3861 38.5648 18.3148C38.3303 18.2436 38.1907 18.395 38.1165 18.6295C37.7246 19.915 36.2017 24.2078 33.0578 25.428C32.8292 25.517 32.4729 25.7338 32.6659 26.1048C32.7935 26.3453 33.2032 26.5145 33.7584 26.2622ZM39.3723 12.312C39.5385 11.9677 39.6068 11.6411 40.5123 11.2641C40.7409 11.1691 40.8923 10.9583 40.8299 10.7208C40.7676 10.4833 40.5301 10.3052 40.1857 10.3645C39.0665 10.5575 38.8231 11.6945 38.7756 12.0894C38.731 12.4694 39.206 12.6564 39.3723 12.312ZM22.6285 13.7727C22.8096 13.4016 23.1273 12.8939 24.1634 12.6802C24.5612 12.597 24.677 12.4248 24.6413 12.1636C24.5701 11.6203 23.8932 11.6589 23.5281 11.745C22.3109 12.03 22.0407 13.1106 21.9903 13.5381C21.9398 13.9448 22.4504 14.1438 22.6285 13.7727Z" fill="#FFF59D"/>
</svg>
