<svg width="32" height="32" xmlns="http://www.w3.org/2000/svg" xmlns:xlink="http://www.w3.org/1999/xlink" xml:space="preserve" overflow="hidden"><g transform="translate(-671 -352)"><path d="M690 378 690 374C690.139 372.747 689.78 371.49 689 370.5 692 370.5 695 368.5 695 365 695.08 363.75 694.73 362.52 694 361.5 694.28 360.35 694.28 359.15 694 358 694 358 693 358 691 359.5 688.36 359 685.64 359 683 359.5 681 358 680 358 680 358 679.7 359.15 679.7 360.35 680 361.5 679.272 362.516 678.918 363.753 679 365 679 368.5 682 370.5 685 370.5 684.61 370.99 684.32 371.55 684.15 372.15 683.98 372.75 683.93 373.38 684 374L684 378" stroke="#C3AB91" stroke-width="2" stroke-linecap="round" stroke-linejoin="round" fill="none"/><path d="M684 374C679.49 376 679 372 677 372" stroke="#C3AB91" stroke-width="2" stroke-linecap="round" stroke-linejoin="round" fill="none"/></g></svg>