<svg width="32" height="32" xmlns="http://www.w3.org/2000/svg" xmlns:xlink="http://www.w3.org/1999/xlink" xml:space="preserve" overflow="hidden"><g transform="translate(-703 -393)"><path d="M727 407C727 411.993 721.461 417.193 719.601 418.799 719.428 418.929 719.217 419 719 419 718.783 419 718.572 418.929 718.399 418.799 716.539 417.193 711 411.993 711 407 711 404.878 711.843 402.843 713.343 401.343 714.843 399.843 716.878 399 719 399 721.122 399 723.157 399.843 724.657 401.343 726.157 402.843 727 404.878 727 407Z" stroke="#C3AB91" stroke-width="2" stroke-linecap="round" stroke-linejoin="round" fill="none"/><path d="M719 410C720.657 410 722 408.657 722 407 722 405.343 720.657 404 719 404 717.343 404 716 405.343 716 407 716 408.657 717.343 410 719 410Z" stroke="#C3AB91" stroke-width="2" stroke-linecap="round" stroke-linejoin="round" fill="none"/></g></svg>