<svg width="32" height="32" xmlns="http://www.w3.org/2000/svg" xmlns:xlink="http://www.w3.org/1999/xlink" xml:space="preserve" overflow="hidden"><g transform="translate(62 -1328)"><path d="M-48 1345C-47.5705 1345.57-47.0226 1346.05-46.3934 1346.39-45.7643 1346.74-45.0685 1346.94-44.3533 1346.99-43.6382 1347.04-42.9204 1346.94-42.2487 1346.69-41.5769 1346.44-40.9669 1346.05-40.46 1345.54L-37.46 1342.54C-36.5492 1341.6-36.0452 1340.33-36.0566 1339.02-36.068 1337.71-36.5939 1336.46-37.5209 1335.53-38.4479 1334.6-39.702 1334.08-41.013 1334.07-42.324 1334.06-43.587 1334.56-44.53 1335.47L-46.25 1337.18" stroke="#B39348" stroke-width="2" stroke-linecap="round" stroke-linejoin="round" fill="none"/><path d="M-44 1343C-44.4294 1342.43-44.9773 1341.95-45.6065 1341.61-46.2357 1341.26-46.9315 1341.06-47.6466 1341.01-48.3618 1340.96-49.0796 1341.06-49.7513 1341.31-50.4231 1341.56-51.0331 1341.95-51.54 1342.46L-54.54 1345.46C-55.4508 1346.4-55.9548 1347.67-55.9434 1348.98-55.932 1350.29-55.4061 1351.54-54.4791 1352.47-53.552 1353.4-52.298 1353.92-50.987 1353.93-49.676 1353.94-48.413 1353.44-47.47 1352.53L-45.76 1350.82" stroke="#B39348" stroke-width="2" stroke-linecap="round" stroke-linejoin="round" fill="none"/></g></svg>