<svg width="20" height="20" viewBox="0 0 20 20" fill="none" xmlns="http://www.w3.org/2000/svg">
<rect x="0.5" y="0.5" width="19" height="19" rx="9.5" fill="#0F766E"/>
<rect x="0.5" y="0.5" width="19" height="19" rx="9.5" stroke="#115E59"/>
<path d="M15.8088 10.3775C16.9975 7.27375 16.265 4.89875 15.845 4.2175C15.6788 3.9475 15.3588 3.8725 15.0638 3.965C14.2863 4.21 12.1875 5.925 11.26 8.325M4.19127 10.3775C3.00252 7.27375 3.73502 4.89875 4.15502 4.2175C4.32127 3.9475 4.64127 3.8725 4.93627 3.965C5.71377 4.21 7.81252 5.925 8.74002 8.325" fill="white"/>
<path d="M16.2637 11.845C16.0387 8.59751 13.8049 6.28751 9.99995 6.28751C6.19495 6.28751 3.9612 8.59751 3.7362 11.845C3.60495 13.7375 4.36745 15.3463 5.87245 16.3713C5.87245 16.3713 7.3987 17.6063 9.99995 17.6388C12.6012 17.6063 14.1274 16.3713 14.1274 16.3713C15.6312 15.3463 16.3949 13.7375 16.2637 11.845Z" fill="white"/>
<path opacity="0.47" d="M8.76505 8.62749C8.9063 8.74749 9.19255 8.72999 9.3588 8.53749C9.56005 8.30374 9.77005 7.51624 9.6388 6.29874C9.05505 6.31999 8.50255 6.40374 7.98755 6.54499C8.4038 7.22749 8.5038 8.40499 8.76505 8.62749ZM11.235 8.62749C11.0938 8.74749 10.8075 8.72999 10.6413 8.53749C10.44 8.30374 10.23 7.51624 10.3613 6.29874C10.945 6.31999 11.4975 6.40374 12.0125 6.54499C11.5963 7.22749 11.4963 8.40499 11.235 8.62749Z" fill="#FF7043"/>
<path d="M6.30365 11.1487C6.29365 10.59 6.68615 10.1312 7.17865 10.1225C7.67115 10.1137 7.9799 10.5712 7.9899 11.13C7.9999 11.6887 7.6074 12.1475 7.1149 12.1562C6.6224 12.165 6.31365 11.7075 6.30365 11.1487ZM13.6962 11.1487C13.7062 10.59 13.3137 10.1312 12.8212 10.1225C12.3287 10.1137 12.0199 10.5712 12.0099 11.13C11.9999 11.6887 12.3924 12.1475 12.8849 12.1562C13.3774 12.165 13.6862 11.7075 13.6962 11.1487Z" fill="black"/>
<path d="M2.30007 11.8025C2.30007 11.8025 3.46382 11.5913 4.80382 12.2963M2.28882 13.3938C2.28882 13.3938 3.31507 12.9288 4.69382 13.1738M2.68757 14.7963C2.68757 14.7963 3.66507 14.1488 4.90632 14.0388M17.6463 11.5425C17.6463 11.5425 16.4763 11.37 15.1613 12.12M17.7113 13.1325C17.7113 13.1325 16.6701 12.7025 15.3001 12.9938M17.3601 14.5488C17.3601 14.5488 16.3613 13.9338 15.1176 13.8675" stroke="#9E9E9E" stroke-width="0.375" stroke-miterlimit="10" stroke-linecap="round"/>
<path d="M8.99493 12.6487C8.98868 12.2912 9.50243 12.1187 9.98868 12.1112C10.4749 12.1025 10.9974 12.2612 11.0037 12.6187C11.0099 12.9762 10.3962 13.4487 10.0099 13.4487C9.62368 13.4487 9.00118 13.0062 8.99493 12.6487Z" fill="black"/>
<path d="M10.9862 14.0438C10.9987 14.0463 11.0112 14.0488 11.0249 14.0513C11.1874 14.0813 11.3374 14.1063 11.4874 14.1888C11.5074 14.2 11.5299 14.2138 11.5374 14.2375C11.5462 14.2613 11.5374 14.2888 11.5287 14.3125C11.4749 14.4413 11.3749 14.5375 11.2749 14.625C10.8799 14.965 10.3999 15.2225 9.90244 15.1925C9.47244 15.1675 9.05744 14.9163 8.80244 14.5288C8.78994 14.51 8.77869 14.49 8.77744 14.4675C8.77619 14.4438 8.78744 14.4213 8.79994 14.4025C8.87369 14.2913 8.99744 14.2413 9.10869 14.1825C9.30244 14.0825 9.47994 13.9438 9.63119 13.775C9.70119 13.6975 9.76744 13.6125 9.85869 13.57C10.0199 13.495 10.0849 13.6288 10.1962 13.7163C10.3212 13.8138 10.4799 13.8938 10.6274 13.9363C10.7474 13.97 10.8674 14.0175 10.9862 14.0438Z" fill="#EF7F9D"/>
<path d="M11.6461 14.1075C11.6461 14.1075 11.0936 15.2863 10.0336 15.2863C9.01739 15.2863 8.42114 14.1075 8.42114 14.1075" stroke="black" stroke-width="0.471875" stroke-miterlimit="10"/>
<path d="M7.09619 13.6088C7.09619 13.6088 7.60119 14.2238 8.58744 14.2238C9.77494 14.2238 10.0787 12.9138 10.0787 12.9138" stroke="black" stroke-width="0.5" stroke-miterlimit="10" stroke-linecap="round"/>
<path d="M12.9036 13.6088C12.9036 13.6088 12.3986 14.2238 11.4124 14.2238C10.2249 14.2238 9.92114 12.9138 9.92114 12.9138" stroke="black" stroke-width="0.5" stroke-miterlimit="10" stroke-linecap="round"/>
<path d="M13.52 7.52875C13.3275 7.3675 13.3325 7.1075 13.445 6.88375C13.715 6.345 14.3612 5.78625 14.59 5.605C14.965 5.3075 15.255 5.2075 15.3662 5.68625C15.5725 6.57125 15.5562 7.7725 15.335 8.435C15.2575 8.66875 15.0175 8.7925 14.8325 8.63125L13.52 7.52875ZM6.47996 7.52875C6.67246 7.3675 6.66746 7.1075 6.55496 6.88375C6.28496 6.345 5.63871 5.78625 5.40996 5.605C5.03496 5.3075 4.74496 5.2075 4.63371 5.68625C4.42746 6.57125 4.44371 7.7725 4.66496 8.435C4.74246 8.66875 4.98246 8.7925 5.16746 8.63125L6.47996 7.52875Z" fill="#FFD1D1"/>
</svg>
