<svg width="20" height="20" viewBox="0 0 20 20" fill="none" xmlns="http://www.w3.org/2000/svg">
<rect x="0.5" y="0.5" width="19" height="19" rx="9.5" fill="#0F766E"/>
<rect x="0.5" y="0.5" width="19" height="19" rx="9.5" stroke="#115E59"/>
<path d="M6.62688 7.3411C6.62688 7.3411 5.98923 6.39938 5.55501 6.2386C5.1197 6.07782 4.66798 6.18282 4.46782 5.92141C4.26548 5.65673 4.16048 5.20501 4.22501 4.91516C4.28954 4.62532 4.4547 4.40548 4.59907 4.37376C4.74345 4.34204 5.12626 4.54438 5.12626 4.54438C5.12626 4.54438 5.10985 4.05329 5.15798 3.8761C5.2061 3.69891 5.40845 3.51407 5.51235 3.44954C5.84923 3.23954 6.02751 3.40141 6.02751 3.40141C6.02751 3.40141 5.89845 4.52907 6.31735 5.02782C6.73626 5.52657 8.39548 7.25032 8.07282 7.26673C7.75126 7.28204 6.62688 7.3411 6.62688 7.3411Z" fill="#DDBCA8"/>
<path d="M6.65744 6.60172C6.65744 6.60172 5.94541 5.93343 5.72119 5.8164C5.49697 5.69937 5.03103 5.75953 4.86806 5.67422C4.64822 5.55937 4.40978 5.31328 4.39009 4.91406C4.37041 4.51484 4.48197 4.31906 4.87681 4.30047C5.19838 4.28515 5.39306 4.40765 5.48056 4.32015C5.56806 4.23265 5.49041 3.6475 5.53853 3.55015C5.58775 3.45281 5.72338 3.26797 6.08431 3.32593C6.44525 3.3839 6.60056 3.7175 6.62025 3.8039C6.70119 4.155 6.64213 4.81453 6.73072 4.97093C6.87072 5.21703 7.81791 6.26922 7.81791 6.26922C7.81791 6.26922 6.66619 6.58203 6.65744 6.60172Z" fill="#FFEBCA"/>
<path d="M6.62907 6.36001C5.09126 7.44501 4.57173 8.94891 4.62642 10.0656C4.67345 11.0259 5.0147 11.5433 5.57361 12.0059C6.13251 12.4686 6.48142 12.5977 6.71329 12.9105C6.94517 13.2233 7.27001 14.5172 7.99189 15.1975C8.71376 15.8778 11.0194 17.2494 13.7056 14.8409C16.4706 12.3614 15.6197 9.87423 14.5981 8.94782C13.6116 8.05313 12.7541 7.99188 12.3144 7.45704C11.8102 6.84454 12.0016 6.59626 11.1834 5.92688C10.2188 5.1372 8.52236 5.02563 6.62907 6.36001Z" fill="white"/>
<path d="M9.69366 9.9497C8.07273 11.2513 6.9571 13.9386 8.90398 15.1942C10.3619 16.1338 12.4423 15.425 13.6268 14.328C14.5532 13.4705 15.7224 11.1966 14.6112 9.84689C13.6224 8.64595 11.424 8.56064 9.69366 9.9497Z" fill="#FBD5B2"/>
<path d="M9.428 6.5678C9.3241 6.46389 9.15894 6.47264 9.02441 6.63124C8.88988 6.78983 8.87128 6.99108 8.98503 7.08186C9.15128 7.21639 9.32519 7.04795 9.41269 6.93202C9.50675 6.80514 9.54613 6.68592 9.428 6.5678ZM6.43769 7.85733C6.23207 7.82561 6.16863 8.02358 6.16097 8.18983C6.15332 8.35608 6.12925 8.54639 6.35128 8.5617C6.57332 8.57702 6.62035 8.34842 6.62035 8.19749C6.61925 8.04655 6.64113 7.88795 6.43769 7.85733ZM6.50003 9.7878C6.30207 9.77905 6.23863 9.94639 6.24738 10.1914C6.25613 10.4364 6.33488 10.5873 6.46941 10.5786C6.60394 10.5709 6.67722 10.42 6.69144 10.2144C6.70675 9.97702 6.69035 9.79545 6.50003 9.7878ZM7.20441 10.5786C7.08519 10.4933 6.91128 10.5545 6.84785 10.8006C6.78003 11.0631 6.88285 11.1462 6.96707 11.1801C7.1016 11.2359 7.20441 11.0926 7.25144 10.9351C7.29956 10.7765 7.31597 10.6573 7.20441 10.5786Z" fill="#AB5931"/>
<path d="M11.8593 9.61937C11.7291 9.53078 10.7743 9.73203 9.85774 10.6027C8.94118 11.4733 8.63711 12.1973 8.7279 12.4456C8.81868 12.6939 9.43993 12.683 9.6893 12.683C9.93868 12.683 10.5807 12.6775 10.7863 12.672C11.1932 12.6611 11.1932 13.0559 10.7754 13.1128C10.4374 13.1587 9.50883 13.1916 9.13586 13.3272C8.80774 13.4464 8.51461 13.5416 8.49165 13.8019C8.46868 14.0622 8.87555 14.7064 9.55477 14.9437C10.234 15.1811 11.0357 15.1133 11.1823 15.0006C11.3288 14.888 11.4306 14.0852 11.4535 13.7122C11.4765 13.3392 11.4645 12.8077 11.7477 12.8077C12.031 12.8077 11.9512 13.4748 11.9621 13.7461C11.9731 14.0173 11.9512 14.492 12.0977 14.6058C12.2443 14.7184 12.8295 14.4275 13.3413 13.9156C13.8051 13.4519 14.1781 12.9542 14.0424 12.7847C13.9068 12.6152 12.7879 12.5922 12.5166 12.6042C12.2454 12.6152 12.2006 12.1525 12.5845 12.1405C12.9684 12.1295 13.8959 12.2083 14.1901 12.0497C14.4843 11.8911 14.8452 11.1681 14.3487 10.3544C13.8521 9.54062 13.2746 9.51765 13.0263 9.54062C12.7781 9.56359 12.6643 10.2187 12.5746 10.5359C12.4838 10.852 12.3941 11.4405 12.3602 11.5761C12.3263 11.7117 12.0321 11.8244 12.0102 11.5312C11.9873 11.237 12.0332 10.7175 12.0441 10.4233C12.0551 10.1291 12.0737 9.76703 11.8593 9.61937Z" fill="#EF7F9D"/>
<path d="M12.5035 13.0111C12.5035 13.0111 11.622 12.2531 11.5541 12.3439C11.4863 12.4347 11.3507 12.5922 11.3277 12.8416C11.3048 13.0899 11.3879 13.1675 11.3879 13.1675C11.3879 13.1675 12.2093 14.2547 12.3898 14.4581C12.5702 14.6616 12.8262 15.0378 12.8492 15.2183C12.8721 15.3988 12.7835 16.0014 12.8645 16.1884C12.9662 16.4258 13.1674 16.5833 13.4726 16.6413C13.6268 16.6708 14.1824 16.6336 14.3301 16.4859C14.4777 16.3383 14.5412 16.0659 14.5412 15.9303C14.5412 15.7947 14.4777 15.6963 14.6243 15.6284C14.7709 15.5606 15.2062 15.6131 15.4096 15.5005C15.6131 15.3878 15.7716 15.145 15.7607 14.8617C15.7498 14.5795 15.3517 14.3881 15.3177 14.3881C15.2838 14.3881 12.5035 13.0111 12.5035 13.0111Z" fill="#DFBBAA"/>
<path d="M12.6162 11.9523C12.567 11.9184 12.5386 11.9064 12.5014 11.9031C12.3395 11.89 12.1295 11.9042 11.8911 12.0541C11.6406 12.2105 11.4678 12.4577 11.4678 12.4577C11.4678 12.4577 12.8536 14.1639 12.9782 14.3455C13.1029 14.5259 13.3282 14.8202 13.3282 14.9667C13.3282 15.1133 13.2429 15.7148 13.2943 15.8483C13.3731 16.0517 13.6673 16.3339 13.9386 16.3339C14.3236 16.3339 14.4734 16.1239 14.5303 15.9762C14.5871 15.8286 14.5839 15.3834 14.6736 15.1581C14.7862 14.8759 15.7006 15.1187 15.7575 14.9383C15.8143 14.7578 15.8964 14.2689 15.4993 14.0392C15.2051 13.8697 14.4701 13.9605 14.4701 13.9605C14.4701 13.9605 12.7606 12.0497 12.6162 11.9523Z" fill="#FFEBCA"/>
</svg>
