<svg width="20" height="20" viewBox="0 0 20 20" fill="none" xmlns="http://www.w3.org/2000/svg">
<rect x="0.5" y="0.5" width="19" height="19" rx="9.5" fill="#0F766E"/>
<rect x="0.5" y="0.5" width="19" height="19" rx="9.5" stroke="#115E59"/>
<path d="M5.84375 8.25C7.17269 8.25 8.25 7.17269 8.25 5.84375C8.25 4.51481 7.17269 3.4375 5.84375 3.4375C4.51481 3.4375 3.4375 4.51481 3.4375 5.84375C3.4375 7.17269 4.51481 8.25 5.84375 8.25Z" fill="#61B2E4"/>
<path d="M5.31875 6.36875C4.81563 5.84375 4.11562 5.60313 3.4375 5.64688V5.90938C4.05 5.86563 4.6625 6.08437 5.12187 6.56562C5.58125 7.025 5.8 7.65937 5.77812 8.25H6.04062C6.08437 7.57188 5.84375 6.87187 5.31875 6.36875ZM8.25 5.77812C7.6375 5.8 7.025 5.60312 6.56562 5.12187C6.10625 4.6625 5.8875 4.02813 5.90938 3.4375H5.64688C5.625 4.11562 5.86562 4.79375 6.36875 5.31875C6.89375 5.84375 7.57188 6.08437 8.25 6.04062V5.77812Z" fill="white"/>
<path d="M14.5499 10.6125L14.7687 10.3938L14.2655 9.89064L15.1405 9.01564L15.4687 9.34376L15.6874 9.12501L15.3593 8.79689L16.1905 7.96564L15.9718 7.74689L15.1405 8.57814L14.4405 7.87814L15.3155 7.00314L15.9937 7.68126L16.2124 7.46251L15.5343 6.78439L16.0812 6.23751L15.8624 6.01876L15.3155 6.56564L14.6374 5.84376L15.403 5.07814L15.1843 4.85939L14.4187 5.62501L13.7187 4.92501L14.2655 4.37814L14.0468 4.15939L13.4999 4.70626L12.8218 4.02814L12.603 4.24689L13.2812 4.92501L12.4062 5.80001L11.7062 5.10001L12.5374 4.26876L12.3187 4.05001L11.4874 4.88126L11.1593 4.55314L10.9405 4.77189L11.2687 5.10001L10.3937 5.97501L9.89053 5.47189L9.67178 5.69064L10.1749 6.19376L9.2999 7.06876L8.97178 6.74064L8.75303 6.95939L9.08115 7.28751L8.2499 8.11876L8.46865 8.33751L9.2999 7.50626L9.9999 8.20626L9.1249 9.08126L8.44678 8.40314L8.22803 8.62189L8.90615 9.30001L8.35928 9.84689L8.57803 10.0656L9.1249 9.51876L9.8249 10.2188L9.05928 10.9844L9.27803 11.2031L10.0437 10.4375L10.7437 11.1375L10.1968 11.6844L10.4155 11.9031L10.9624 11.3563L11.6405 12.0344L11.8593 11.8156L11.1812 11.1375L12.0562 10.2625L12.7562 10.9625L11.9249 11.7938L12.1437 12.0125L12.953 11.1813L13.2812 11.5094L13.4999 11.2906L13.1718 10.9625L14.0468 10.0875L14.5499 10.6125ZM14.9218 8.79689L14.0468 9.67189L13.3468 8.97189L14.2218 8.09689L14.9218 8.79689ZM12.0343 9.84689L11.3343 9.14689L12.2093 8.27189L12.9093 8.97189L12.0343 9.84689ZM11.2905 7.35314L11.9905 8.05314L11.1155 8.92814L10.4155 8.22814L11.2905 7.35314ZM12.3843 6.25939L13.0843 6.95939L12.2093 7.83439L11.5093 7.13439L12.3843 6.25939ZM12.428 8.05314L13.303 7.17814L14.003 7.87814L13.128 8.75314L12.428 8.05314ZM15.0968 6.78439L14.2218 7.65939L13.5218 6.95939L14.3968 6.08439L15.0968 6.78439ZM13.478 5.16564L14.178 5.86564L13.303 6.74064L12.6249 6.01876L13.478 5.16564ZM11.4655 5.34064L12.1655 6.04064L11.2905 6.91564L10.5905 6.21564L11.4655 5.34064ZM9.49678 7.30939L10.3718 6.43439L11.0718 7.13439L10.1968 8.00939L9.49678 7.30939ZM9.32178 9.32189L10.1968 8.44689L10.8968 9.14689L10.0218 10.0219L9.32178 9.32189ZM10.9187 10.9406L10.2187 10.2406L11.0937 9.36564L11.7937 10.0656L10.9187 10.9406ZM12.953 10.7656L12.253 10.0656L13.128 9.19064L13.828 9.89064L12.953 10.7656Z" fill="#D0D0D0"/>
<path d="M15.6218 4.64062C14.1343 3.15312 11.3781 3.45937 9.49684 5.34062C7.61559 7.22187 7.30934 9.95624 8.79684 11.4656C10.3062 12.9531 13.0406 12.6469 14.9218 10.7656C16.8031 8.88437 17.1093 6.14999 15.6218 4.64062ZM9.34371 10.9187C8.07496 9.64999 8.33746 7.35312 9.93434 5.75624C11.5312 4.15937 13.8281 3.89687 15.0968 5.16562C16.3656 6.43437 16.1031 8.73124 14.5062 10.3281C12.9093 11.925 10.5906 12.1875 9.34371 10.9187Z" fill="white"/>
<path d="M11.3343 12.3844C11.4875 12.3844 10.0656 11.8813 10.0656 11.8813C10.0656 11.8813 8.27183 12.6906 7.92183 12.3406C7.57183 11.9906 8.3812 10.1969 8.3812 10.1969C8.3812 10.1969 7.87808 8.77501 7.8562 8.92813C7.7687 10.35 7.54995 11.75 6.87183 12.5375C6.78433 12.6469 6.65308 12.7563 6.65308 12.7563L7.0687 13.1719L7.48433 13.5875C7.48433 13.5875 7.5937 13.4563 7.70308 13.3688C8.51245 12.7125 9.91245 12.4719 11.3343 12.3844Z" fill="white"/>
<path d="M3.77222 15.4077L6.75728 12.4224L7.82478 13.4897L4.83906 16.475L3.77222 15.4077Z" fill="#4D4F59"/>
<path d="M5.18745 13.9813L5.9312 15.3594L6.39058 14.9L5.64683 13.5L5.18745 13.9813ZM4.24683 14.9219L4.99058 16.3219L5.44995 15.8406L4.7062 14.4625L4.24683 14.9219Z" fill="white"/>
<path d="M3.76562 15.4031L4.81563 16.475L4.99063 16.3219L4.24687 14.9219L3.76562 15.4031ZM4.70625 14.4625L5.45 15.8406L5.93125 15.3594L5.1875 13.9813L4.70625 14.4625ZM6.7625 12.4062L6.60938 12.5594L7.33125 13.9594L7.8125 13.4781L6.7625 12.4062Z" fill="white"/>
<path d="M6.12817 13.0406L6.87192 14.4188L7.3313 13.9594L6.60942 12.5594L6.12817 13.0406Z" fill="white"/>
<path d="M5.64697 13.5L6.39072 14.9L6.87197 14.4187L6.12822 13.0406L5.64697 13.5Z" fill="white"/>
<path d="M3.66846 15.3075L4.00883 14.9674L5.26161 16.2204L4.92124 16.5605L3.66846 15.3075ZM6.31839 12.662L6.65877 12.3216L7.91133 13.575L7.57096 13.9152L6.31839 12.662Z" fill="white"/>
</svg>
