<svg width="20" height="20" viewBox="0 0 20 20" fill="none" xmlns="http://www.w3.org/2000/svg">
<rect x="0.5" y="0.5" width="19" height="19" rx="9.5" fill="#0F766E"/>
<rect x="0.5" y="0.5" width="19" height="19" rx="9.5" stroke="#115E59"/>
<path d="M13.3382 5.38545C13.605 5.25639 13.7899 4.98405 13.7899 4.66795C13.7899 4.45678 13.706 4.25425 13.5567 4.10492C13.4073 3.95559 13.2048 3.8717 12.9936 3.8717C12.7824 3.8717 12.5799 3.95559 12.4306 4.10492C12.2813 4.25425 12.1974 4.45678 12.1974 4.66795C12.1974 4.98842 12.3866 5.26295 12.6589 5.38983C12.3439 7.09608 11.8605 8.36592 10.0613 8.63717C10.0613 8.63717 10.5458 11.0598 12.8121 11.0598C15.0783 11.0598 15.308 8.66123 15.308 8.66123C13.4694 8.7553 13.3141 6.4442 13.3382 5.38545Z" fill="#FFD1D1"/>
<path d="M6.7998 5.38545C6.53293 5.25639 6.34809 4.98405 6.34809 4.66795C6.34809 4.45678 6.43198 4.25425 6.5813 4.10492C6.73063 3.95559 6.93316 3.8717 7.14434 3.8717C7.35551 3.8717 7.55804 3.95559 7.70737 4.10492C7.8567 4.25425 7.94059 4.45678 7.94059 4.66795C7.94059 4.98842 7.75137 5.26295 7.47902 5.38983C7.79402 7.09608 8.27746 8.36592 10.0767 8.63717C10.0767 8.63717 9.59215 11.0598 7.3259 11.0598C5.05965 11.0598 4.83105 8.66233 4.83105 8.66233C6.66855 8.7553 6.82387 6.4442 6.7998 5.38545Z" fill="#FFD1D1"/>
<path d="M12.7815 11.0598C12.7913 11.0598 12.8012 11.0609 12.811 11.0609C13.4356 11.0609 13.9048 10.8783 14.257 10.6147L12.7815 11.0598Z" fill="white"/>
<path d="M16.0419 4.84407C15.6776 4.79485 15.3298 5.14157 15.2664 5.61626C15.227 5.91267 15.3069 6.18938 15.4611 6.36767L15.1986 7.45595C15.1986 7.45595 14.7972 10.0274 12.7694 10.5349C11.1484 10.9406 10.5611 7.97329 10.4189 7.05673C10.7273 6.9036 10.9406 6.58642 10.9406 6.21782C10.9406 5.70048 10.5217 5.28157 10.0044 5.28157C9.48701 5.28157 9.06811 5.70048 9.06811 6.21782C9.06811 6.5886 9.28467 6.90907 9.59858 7.06001C9.48592 7.96454 8.98936 10.8334 7.23936 10.5338C5.46311 10.2286 4.68764 7.2372 4.50826 6.42345C4.72154 6.24845 4.84076 5.94001 4.79701 5.6086C4.73358 5.13282 4.35733 4.79157 3.95701 4.84517C3.5567 4.89876 3.28436 5.32751 3.3478 5.8022C3.39373 6.14782 3.60592 6.42235 3.8717 6.52626L5.26295 15.1702C5.26295 15.1702 6.47701 16.1294 10.0044 16.1294C13.5317 16.1294 14.7458 15.1702 14.7458 15.1702L16.1403 6.50329C16.3656 6.38517 16.5428 6.11938 16.5865 5.79345C16.6511 5.31767 16.4072 4.89329 16.0419 4.84407Z" fill="white"/>
<path d="M10.0482 13.9277C10.6366 13.9277 11.1135 13.3591 11.1135 12.6578C11.1135 11.9565 10.6366 11.388 10.0482 11.388C9.45987 11.388 8.98291 11.9565 8.98291 12.6578C8.98291 13.3591 9.45987 13.9277 10.0482 13.9277Z" fill="#61B2E4"/>
<path d="M10.0482 11.7019C10.0897 11.7478 10.1269 11.832 10.0482 11.9961C9.96944 12.1602 9.54506 12.3822 9.46741 12.427C9.38975 12.473 9.33834 12.4522 9.31428 12.4336C9.19944 12.3417 9.24319 12.1339 9.31756 12.007C9.47725 11.7325 9.81522 11.4492 10.0482 11.7019Z" fill="#61B2E4"/>
<path d="M9.96934 13.1314C9.84903 13.1894 9.45419 13.3655 9.58434 13.5744C9.6609 13.698 9.8195 13.7505 9.96497 13.757C10.1104 13.7636 10.2537 13.7176 10.3828 13.6509C10.9953 13.3337 11.0445 12.5003 10.9253 12.4369C10.8028 12.3712 10.7197 12.5408 10.6562 12.613C10.4633 12.8289 10.2299 13.005 9.96934 13.1314Z" fill="#61B2E4"/>
<path d="M15.9161 11.6187C16.0868 10.6748 15.4524 10.4386 15.4524 10.4386C15.4524 10.4386 15.0433 10.3642 14.8508 11.4262C14.6583 12.4872 15.0674 12.5616 15.0674 12.5616C15.0674 12.5616 15.7444 12.5627 15.9161 11.6187Z" fill="#61B2E4"/>
<path d="M15.634 10.7612C15.7828 10.9603 15.6067 11.2545 15.3212 11.4503C15.237 11.5083 15.1254 11.4864 15.109 11.4383C15.0631 11.3005 15.0828 11.1441 15.144 11.0117C15.3256 10.6147 15.5585 10.6606 15.634 10.7612Z" fill="#61B2E4"/>
<path d="M4.06753 11.6472C3.89581 10.7044 4.53128 10.467 4.53128 10.467C4.53128 10.467 4.94034 10.3927 5.13284 11.4547C5.32534 12.5156 4.91628 12.59 4.91628 12.59C4.91628 12.59 4.23815 12.5911 4.06753 11.6472Z" fill="#61B2E4"/>
<path d="M4.72587 10.7875C4.87243 10.8969 4.81227 11.0401 4.7018 11.1397C4.57602 11.2545 4.47977 11.3803 4.37259 11.5105C4.35618 11.5301 4.33758 11.552 4.31133 11.5575C4.26102 11.5684 4.22055 11.517 4.20415 11.4678C4.15712 11.33 4.16587 11.1681 4.23587 11.0412C4.43493 10.6792 4.66899 10.7448 4.72587 10.7875Z" fill="#61B2E4"/>
<path d="M13.9363 12.5331C13.8609 12.963 13.5163 13.2615 13.1652 13.2003C12.8142 13.139 12.766 12.7726 12.8415 12.3428C12.917 11.913 13.0865 11.5837 13.4365 11.645C13.7876 11.7062 14.0118 12.1044 13.9363 12.5331ZM6.32821 12.5331C6.40368 12.963 6.74821 13.2615 7.09931 13.2003C7.4504 13.139 7.49852 12.7726 7.42306 12.3428C7.34759 11.913 7.17806 11.5837 6.82806 11.645C6.47806 11.7062 6.25384 12.1044 6.32821 12.5331Z" fill="#FFD1D1"/>
<path d="M6.83694 12.2466C6.7571 12.3363 6.56241 12.5167 6.49351 12.3789C6.39944 12.1908 6.5296 11.9064 6.67835 11.8123C6.8271 11.7183 6.94851 11.7927 6.96929 11.8769C6.99444 11.9841 6.90804 12.1656 6.83694 12.2466ZM13.0604 12.5211C12.9521 12.5047 12.9401 12.1317 13.231 11.8386C13.3699 11.6986 13.569 11.8648 13.5187 12.0891C13.4705 12.3023 13.2583 12.5517 13.0604 12.5211Z" fill="#FFA8A4"/>
<path d="M14.9382 13.7417C14.283 14.0699 12.7802 14.9438 10.0054 14.9438C7.23053 14.9438 5.72772 14.0699 5.07256 13.7417C5.07256 13.7417 4.8374 13.8675 4.8374 13.9988V15.0061C4.8374 15.1406 4.9085 15.2642 5.02443 15.3331C5.53631 15.635 7.096 16.3481 10.0065 16.3481C12.9169 16.3481 14.4766 15.635 14.9885 15.3331C15.0454 15.2995 15.0925 15.2517 15.1253 15.1944C15.1581 15.137 15.1754 15.0722 15.1755 15.0061V13.9988C15.1733 13.8675 14.9382 13.7417 14.9382 13.7417Z" fill="white"/>
<path d="M7.33133 15.1231C7.63758 15.1833 7.73055 15.2095 7.70977 15.3802C7.66711 15.7159 6.97039 15.6361 6.55805 15.5278C5.70602 15.3036 5.5332 15.0674 5.5332 14.8563C5.5332 14.6627 5.68195 14.6397 5.91164 14.7206C6.18617 14.818 6.61055 14.982 7.33133 15.1231Z" fill="#FFF59D"/>
<path d="M14.9384 13.9626C14.9384 13.9626 13.126 14.9886 10.0056 14.9886C6.8851 14.9886 5.07275 13.9626 5.07275 13.9626" stroke="#FFD1D1" stroke-width="0.5" stroke-miterlimit="10" stroke-linecap="round"/>
<path d="M5.94995 8.42173C6.53183 8.00611 6.84464 7.26126 6.87198 6.07564C6.87417 5.96845 6.90479 5.93673 6.96276 5.93017C7.05573 5.92033 7.07104 6.00454 7.06995 6.0647C7.0437 7.34439 6.88073 8.14392 6.23542 8.59454C6.2037 8.61642 5.97729 8.75423 5.88104 8.65908C5.7662 8.54751 5.91276 8.44798 5.94995 8.42173ZM6.48261 4.6997C6.46401 4.50173 6.50995 4.14517 7.02948 3.98329C7.18151 3.93626 7.27558 4.01064 7.29308 4.06861C7.33683 4.21298 7.20995 4.26986 7.15198 4.28845C6.75276 4.41751 6.73308 4.61658 6.65105 4.74345C6.56901 4.87033 6.48917 4.75986 6.48261 4.6997ZM11.5554 8.15923C12.0815 7.6922 12.4304 7.17048 12.6601 5.98267C12.6809 5.87767 12.7115 5.84923 12.7684 5.85142C12.8614 5.85361 12.8657 5.94001 12.8559 5.99908C12.6612 7.26564 12.4764 7.62658 11.8278 8.34517C11.7545 8.42611 11.5762 8.49939 11.4756 8.41517C11.3848 8.3397 11.4898 8.21829 11.5554 8.15923ZM12.3298 4.70954C12.3112 4.51158 12.3571 4.15501 12.8767 3.99314C13.0287 3.94611 13.1228 4.02048 13.1403 4.07845C13.184 4.22283 13.0571 4.2797 12.9992 4.29829C12.6 4.42736 12.5803 4.62642 12.4982 4.75329C12.4173 4.88017 12.3364 4.7697 12.3298 4.70954Z" fill="white"/>
<path d="M6.45523 10.8334C5.18429 10.257 4.81023 8.75313 4.61117 8.10016C4.58492 8.01375 4.59804 7.93172 4.68445 7.90547C4.77086 7.87922 4.82226 7.935 4.84961 8.02141C4.99398 8.495 5.55508 10.0766 6.71336 10.5261C6.79758 10.5589 6.92883 10.6388 6.85773 10.7755C6.8107 10.8641 6.65976 10.9264 6.45523 10.8334ZM4.38695 5.69391C4.3257 5.56703 4.30054 5.44672 3.96695 5.30781C3.88273 5.27281 3.82695 5.19516 3.84992 5.10766C3.87289 5.02016 3.96039 4.95453 4.08726 4.97641C4.49961 5.0475 4.58929 5.46641 4.60679 5.61188C4.6232 5.75188 4.44929 5.82078 4.38695 5.69391ZM13.5952 10.8334C14.8662 10.257 15.2402 8.75313 15.4393 8.10016C15.4655 8.01375 15.4524 7.93172 15.366 7.90547C15.2796 7.87922 15.2282 7.935 15.2009 8.02141C15.0565 8.495 14.4954 10.0766 13.3371 10.5261C13.2529 10.5589 13.1216 10.6388 13.1927 10.7755C13.2398 10.8641 13.3907 10.9264 13.5952 10.8334ZM15.6635 5.69391C15.7248 5.56703 15.7499 5.44672 16.0835 5.30781C16.1677 5.27281 16.2235 5.19516 16.2005 5.10766C16.1776 5.02016 16.0901 4.95453 15.9632 4.97641C15.5509 5.0475 15.4612 5.46641 15.4437 5.61188C15.4273 5.75188 15.6023 5.82078 15.6635 5.69391ZM9.49476 6.23203C9.56148 6.09531 9.67851 5.90828 10.0602 5.82953C10.2068 5.79891 10.2495 5.73547 10.2363 5.63922C10.2101 5.43906 9.9607 5.45328 9.82617 5.485C9.37773 5.59 9.2782 5.98813 9.25961 6.14563C9.24101 6.29547 9.42914 6.36875 9.49476 6.23203Z" fill="#FFF59D"/>
</svg>
