<svg width="20" height="20" viewBox="0 0 20 20" fill="none" xmlns="http://www.w3.org/2000/svg">
<rect x="0.5" y="0.5" width="19" height="19" rx="9.5" fill="#0F766E"/>
<rect x="0.5" y="0.5" width="19" height="19" rx="9.5" stroke="#115E59"/>
<path d="M15.8088 10.3775C16.9975 7.27375 16.265 4.89875 15.845 4.2175C15.6788 3.9475 15.3588 3.8725 15.0638 3.965C14.2863 4.21 12.1875 5.925 11.26 8.325M4.19127 10.3775C3.00252 7.27375 3.73502 4.89875 4.15502 4.2175C4.32127 3.9475 4.64127 3.8725 4.93627 3.965C5.71377 4.21 7.81252 5.925 8.74002 8.325" fill="white"/>
<path d="M16.2637 11.845C16.0387 8.59751 13.8049 6.28751 9.99995 6.28751C6.19495 6.28751 3.9612 8.59751 3.7362 11.845C3.60495 13.7375 4.36745 15.3463 5.87245 16.3713C5.87245 16.3713 7.3987 17.6063 9.99995 17.6388C12.6012 17.6063 14.1274 16.3713 14.1274 16.3713C15.6312 15.3463 16.3949 13.7375 16.2637 11.845Z" fill="white"/>
<path opacity="0.47" d="M8.76505 8.62752C8.9063 8.74752 9.19255 8.73002 9.3588 8.53752C9.56005 8.30377 9.77005 7.51627 9.6388 6.29877C9.05505 6.32002 8.50255 6.40377 7.98755 6.54502C8.4038 7.22752 8.5038 8.40502 8.76505 8.62752ZM11.235 8.62752C11.0938 8.74752 10.8075 8.73002 10.6413 8.53752C10.44 8.30377 10.23 7.51627 10.3613 6.29877C10.945 6.32002 11.4975 6.40377 12.0125 6.54502C11.5963 7.22752 11.4963 8.40502 11.235 8.62752Z" fill="#FF7043"/>
<path d="M17.3013 11.0787L15.1863 12.12M17.5638 12.6037L15.295 12.9987M17.3013 14.6212L15.1863 13.8987M2.69878 11.0787L4.81378 12.12M2.43628 12.6037L4.70503 12.9987M2.69878 14.6212L4.81378 13.8987" stroke="#9E9E9E" stroke-width="0.375" stroke-miterlimit="10" stroke-linecap="round"/>
<path d="M6.07005 11.7825C6.03255 11.7825 5.99505 11.775 5.9588 11.7588C5.92541 11.7442 5.89521 11.7233 5.86996 11.697C5.8447 11.6708 5.82488 11.6398 5.81164 11.6059C5.7984 11.572 5.79199 11.5358 5.79279 11.4994C5.79359 11.463 5.80158 11.4271 5.8163 11.3938C5.86005 11.2938 6.2663 10.4125 6.98505 10.4125C7.69505 10.4125 8.1313 11.255 8.1788 11.3513C8.2463 11.4888 8.19005 11.655 8.05255 11.7225C7.91505 11.79 7.7813 11.7075 7.6813 11.5963C7.56005 11.4613 7.2963 11.1588 6.98505 11.1588C6.67255 11.1588 6.41255 11.4825 6.32505 11.615C6.2613 11.7113 6.1763 11.7825 6.07005 11.7825ZM13.9301 11.7825C13.9676 11.7825 14.0051 11.775 14.0413 11.7588C14.0747 11.7442 14.1049 11.7233 14.1301 11.697C14.1554 11.6708 14.1752 11.6398 14.1885 11.6059C14.2017 11.572 14.2081 11.5358 14.2073 11.4994C14.2065 11.463 14.1985 11.4271 14.1838 11.3938C14.1401 11.2938 13.7338 10.4125 13.0151 10.4125C12.3051 10.4125 11.8688 11.255 11.8213 11.3513C11.7538 11.4888 11.8101 11.655 11.9476 11.7225C12.0851 11.79 12.2188 11.7075 12.3188 11.5963C12.4401 11.4613 12.7038 11.1588 13.0151 11.1588C13.3276 11.1588 13.5876 11.4825 13.6751 11.615C13.7388 11.7113 13.8238 11.7825 13.9301 11.7825ZM8.99505 12.6225C8.9888 12.265 9.50255 12.0925 9.9888 12.085C10.4751 12.0763 10.9976 12.235 11.0038 12.5925C11.0101 12.95 10.3963 13.4225 10.0101 13.4225C9.6238 13.4225 9.0013 12.98 8.99505 12.6225Z" fill="black"/>
<path d="M9.91635 16.1287C9.88373 16.1246 9.85226 16.1141 9.82372 16.0978C9.79518 16.0815 9.77015 16.0597 9.75006 16.0337C9.72996 16.0076 9.71521 15.9779 9.70663 15.9462C9.69806 15.9144 9.69584 15.8813 9.7001 15.8487C9.7176 15.7125 9.84135 15.6325 9.9801 15.6325C10.5651 15.6325 10.6926 15.505 10.6976 15.38C10.7038 15.2125 10.5101 15.1 10.2126 15.0162C10.0688 14.9762 9.9676 14.8925 9.97385 14.7425C9.97885 14.5962 10.0876 14.53 10.2301 14.5012C10.3526 14.4762 10.4726 14.4312 10.5801 14.4012C10.7876 14.3437 10.9138 14.0387 10.5263 13.8037C10.2251 13.6212 9.7676 13.4112 9.4126 13.1875C9.52135 13.2075 10.2263 13.1375 10.3713 13.2275C10.5401 13.3337 10.8563 13.525 11.0301 13.6237C11.2088 13.7262 11.3238 13.9237 11.3238 14.1287C11.3238 14.6087 10.8338 14.79 10.8338 14.79C11.1251 14.9762 11.1988 15.2 11.1988 15.3787C11.1988 15.5912 11.1338 15.7937 10.9676 15.9075C10.5588 16.1875 9.98135 16.1375 9.91635 16.1287Z" fill="black"/>
<path d="M6.98498 16.27C8.04053 16.27 8.89623 15.4143 8.89623 14.3588C8.89623 13.3032 8.04053 12.4475 6.98498 12.4475C5.92943 12.4475 5.07373 13.3032 5.07373 14.3588C5.07373 15.4143 5.92943 16.27 6.98498 16.27Z" fill="url(#paint0_radial_26_800)"/>
<path d="M13.14 16.27C14.1956 16.27 15.0513 15.4143 15.0513 14.3588C15.0513 13.3032 14.1956 12.4475 13.14 12.4475C12.0845 12.4475 11.2288 13.3032 11.2288 14.3588C11.2288 15.4143 12.0845 16.27 13.14 16.27Z" fill="url(#paint1_radial_26_800)"/>
<path d="M13.52 7.52875C13.3275 7.3675 13.3325 7.1075 13.445 6.88375C13.715 6.345 14.3612 5.78625 14.59 5.605C14.965 5.3075 15.255 5.2075 15.3662 5.68625C15.5725 6.57125 15.5562 7.7725 15.335 8.435C15.2575 8.66875 15.0175 8.7925 14.8325 8.63125L13.52 7.52875ZM6.47996 7.52875C6.67246 7.3675 6.66746 7.1075 6.55496 6.88375C6.28496 6.345 5.63871 5.78625 5.40996 5.605C5.03496 5.3075 4.74496 5.2075 4.63371 5.68625C4.42746 6.57125 4.44371 7.7725 4.66496 8.435C4.74246 8.66875 4.98246 8.7925 5.16746 8.63125L6.47996 7.52875Z" fill="#FFD1D1"/>
<path d="M14.904 8.1445H14.25C14.2063 8.14434 14.1634 8.13273 14.1255 8.11084C14.0877 8.08895 14.0562 8.05753 14.0343 8.01972C14.0123 7.9819 14.0007 7.939 14.0004 7.89528C14.0002 7.85156 14.0114 7.80854 14.033 7.7705L14.473 7H14.25C14.1837 7 14.1201 6.97366 14.0732 6.92678C14.0263 6.87989 14 6.8163 14 6.75C14 6.6837 14.0263 6.62011 14.0732 6.57322C14.1201 6.52634 14.1837 6.5 14.25 6.5H14.904C14.9477 6.50016 14.9906 6.51177 15.0285 6.53366C15.0663 6.55555 15.0978 6.58697 15.1197 6.62478C15.1417 6.6626 15.1533 6.7055 15.1536 6.74922C15.1538 6.79294 15.1426 6.83596 15.121 6.874L14.681 7.6445H14.904C14.9703 7.6445 15.0339 7.67084 15.0808 7.71772C15.1277 7.76461 15.154 7.8282 15.154 7.8945C15.154 7.9608 15.1277 8.02439 15.0808 8.07128C15.0339 8.11816 14.9703 8.1445 14.904 8.1445ZM16.4398 7.1445H15.4998C15.4561 7.14429 15.4132 7.13266 15.3754 7.11075C15.3375 7.08884 15.3061 7.05742 15.2842 7.01961C15.2623 6.9818 15.2507 6.93892 15.2504 6.89522C15.2502 6.85152 15.2615 6.80852 15.283 6.7705L16.009 5.5H15.5C15.4337 5.5 15.3701 5.47366 15.3232 5.42678C15.2763 5.37989 15.25 5.3163 15.25 5.25C15.25 5.1837 15.2763 5.12011 15.3232 5.07322C15.3701 5.02634 15.4337 5 15.5 5H16.44C16.4837 5.00016 16.5266 5.01177 16.5645 5.03366C16.6023 5.05555 16.6338 5.08697 16.6557 5.12478C16.6777 5.1626 16.6893 5.2055 16.6896 5.24922C16.6898 5.29294 16.6786 5.33596 16.657 5.374L15.9307 6.6445H16.4398C16.5061 6.6445 16.5696 6.67084 16.6165 6.71772C16.6634 6.76461 16.6898 6.8282 16.6898 6.8945C16.6898 6.9608 16.6634 7.02439 16.6165 7.07128C16.5696 7.11816 16.5061 7.1445 16.4398 7.1445ZM18.4753 8.3945H17.2502C17.2065 8.39434 17.1636 8.38273 17.1258 8.36084C17.0879 8.33895 17.0565 8.30753 17.0345 8.26972C17.0126 8.2319 17.0009 8.189 17.0007 8.14528C17.0005 8.10156 17.0117 8.05854 17.0332 8.0205L18.0448 6.25H17.2502C17.1839 6.25 17.1204 6.22366 17.0735 6.17678C17.0266 6.12989 17.0002 6.0663 17.0002 6C17.0002 5.9337 17.0266 5.87011 17.0735 5.82322C17.1204 5.77634 17.1839 5.75 17.2502 5.75H18.4757C18.5195 5.75016 18.5624 5.76177 18.6002 5.78366C18.6381 5.80555 18.6695 5.83697 18.6915 5.87478C18.7134 5.9126 18.7251 5.9555 18.7253 5.99922C18.7255 6.04294 18.7143 6.08596 18.6927 6.124L17.681 7.8945H18.4757C18.5421 7.8945 18.6056 7.92084 18.6525 7.96772C18.6994 8.01461 18.7257 8.0782 18.7257 8.1445C18.7257 8.2108 18.6994 8.27439 18.6525 8.32128C18.6056 8.36816 18.5421 8.3945 18.4757 8.3945H18.4753Z" fill="#61B2E4" stroke="#61B2E4" stroke-width="0.025" stroke-miterlimit="10"/>
<defs>
<radialGradient id="paint0_radial_26_800" cx="0" cy="0" r="1" gradientUnits="userSpaceOnUse" gradientTransform="translate(6.98476 14.359) scale(2.07863 1.9814)">
<stop stop-color="#ED7770"/>
<stop offset="1" stop-color="#ED7770" stop-opacity="0"/>
</radialGradient>
<radialGradient id="paint1_radial_26_800" cx="0" cy="0" r="1" gradientUnits="userSpaceOnUse" gradientTransform="translate(13.1406 14.359) scale(2.07863 1.9814)">
<stop stop-color="#ED7770"/>
<stop offset="1" stop-color="#ED7770" stop-opacity="0"/>
</radialGradient>
</defs>
</svg>
