<svg width="225" height="39" viewBox="0 0 225 39" fill="none" xmlns="http://www.w3.org/2000/svg">
<path d="M22.6037 15.875H17.6264C17.5355 15.2311 17.3499 14.6591 17.0696 14.1591C16.7893 13.6515 16.4295 13.2197 15.9901 12.8636C15.5507 12.5076 15.0431 12.2348 14.4673 12.0455C13.8991 11.8561 13.2817 11.7614 12.6151 11.7614C11.4105 11.7614 10.3613 12.0606 9.46733 12.6591C8.57339 13.25 7.88021 14.1136 7.38778 15.25C6.89536 16.3788 6.64915 17.75 6.64915 19.3636C6.64915 21.0227 6.89536 22.4167 7.38778 23.5455C7.88778 24.6742 8.58475 25.5265 9.47869 26.1023C10.3726 26.678 11.4067 26.9659 12.581 26.9659C13.2401 26.9659 13.8499 26.8788 14.4105 26.7045C14.9787 26.5303 15.4825 26.2765 15.9219 25.9432C16.3613 25.6023 16.7249 25.1894 17.0128 24.7045C17.3082 24.2197 17.5128 23.6667 17.6264 23.0455L22.6037 23.0682C22.4749 24.1364 22.1529 25.1667 21.6378 26.1591C21.1302 27.1439 20.4446 28.0265 19.581 28.8068C18.7249 29.5795 17.7022 30.1932 16.5128 30.6477C15.331 31.0947 13.9938 31.3182 12.5014 31.3182C10.4257 31.3182 8.5696 30.8485 6.93324 29.9091C5.30445 28.9697 4.01657 27.6098 3.0696 25.8295C2.13021 24.0492 1.66051 21.8939 1.66051 19.3636C1.66051 16.8258 2.13778 14.6667 3.09233 12.8864C4.04688 11.1061 5.34233 9.75 6.97869 8.81818C8.61506 7.87879 10.456 7.40909 12.5014 7.40909C13.8499 7.40909 15.0999 7.59848 16.2514 7.97727C17.4105 8.35606 18.437 8.90909 19.331 9.63636C20.2249 10.3561 20.9522 11.2386 21.5128 12.2841C22.081 13.3295 22.4446 14.5265 22.6037 15.875ZM31.0185 31.3295C29.9048 31.3295 28.9124 31.1364 28.0412 30.75C27.17 30.3561 26.4806 29.7765 25.973 29.0114C25.473 28.2386 25.223 27.2765 25.223 26.125C25.223 25.1553 25.401 24.3409 25.7571 23.6818C26.1132 23.0227 26.598 22.4924 27.2116 22.0909C27.8253 21.6894 28.5223 21.3864 29.3026 21.1818C30.0904 20.9773 30.9162 20.8333 31.7798 20.75C32.795 20.6439 33.6132 20.5455 34.2344 20.4545C34.8556 20.3561 35.3063 20.2121 35.5866 20.0227C35.867 19.8333 36.0071 19.553 36.0071 19.1818V19.1136C36.0071 18.3939 35.7798 17.8371 35.3253 17.4432C34.8783 17.0492 34.242 16.8523 33.4162 16.8523C32.545 16.8523 31.8518 17.0455 31.3366 17.4318C30.8215 17.8106 30.4806 18.2879 30.3139 18.8636L25.8366 18.5C26.0639 17.4394 26.5109 16.5227 27.1776 15.75C27.8442 14.9697 28.7041 14.3712 29.7571 13.9545C30.8177 13.5303 32.045 13.3182 33.4389 13.3182C34.4086 13.3182 35.3366 13.4318 36.223 13.6591C37.117 13.8864 37.9086 14.2386 38.598 14.7159C39.295 15.1932 39.8442 15.8068 40.2457 16.5568C40.6473 17.2992 40.848 18.1894 40.848 19.2273V31H36.2571V28.5795H36.1207C35.8404 29.125 35.4654 29.6061 34.9957 30.0227C34.526 30.4318 33.9616 30.7538 33.3026 30.9886C32.6435 31.2159 31.8821 31.3295 31.0185 31.3295ZM32.4048 27.9886C33.117 27.9886 33.7457 27.8485 34.2912 27.5682C34.8366 27.2803 35.2647 26.8939 35.5753 26.4091C35.8859 25.9242 36.0412 25.375 36.0412 24.7614V22.9091C35.8897 23.0076 35.6813 23.0985 35.4162 23.1818C35.1586 23.2576 34.867 23.3295 34.5412 23.3977C34.2154 23.4583 33.8897 23.5152 33.5639 23.5682C33.2382 23.6136 32.9427 23.6553 32.6776 23.6932C32.1094 23.7765 31.6132 23.9091 31.1889 24.0909C30.7647 24.2727 30.4351 24.5189 30.2003 24.8295C29.9654 25.1326 29.848 25.5114 29.848 25.9659C29.848 26.625 30.0866 27.1288 30.5639 27.4773C31.0488 27.8182 31.6624 27.9886 32.4048 27.9886ZM53.8878 13.5455V17.1818H43.3764V13.5455H53.8878ZM45.7628 9.36364H50.6037V25.6364C50.6037 26.0833 50.6719 26.4318 50.8082 26.6818C50.9446 26.9242 51.134 27.0947 51.3764 27.1932C51.6264 27.2917 51.9143 27.3409 52.2401 27.3409C52.4673 27.3409 52.6946 27.322 52.9219 27.2841C53.1491 27.2386 53.3234 27.2045 53.4446 27.1818L54.206 30.7841C53.9635 30.8598 53.6226 30.947 53.1832 31.0455C52.7438 31.1515 52.2098 31.2159 51.581 31.2386C50.4143 31.2841 49.3916 31.1288 48.5128 30.7727C47.6416 30.4167 46.9635 29.8636 46.4787 29.1136C45.9938 28.3636 45.7552 27.4167 45.7628 26.2727V9.36364ZM77.6662 15.875H72.6889C72.598 15.2311 72.4124 14.6591 72.1321 14.1591C71.8518 13.6515 71.492 13.2197 71.0526 12.8636C70.6132 12.5076 70.1056 12.2348 69.5298 12.0455C68.9616 11.8561 68.3442 11.7614 67.6776 11.7614C66.473 11.7614 65.4238 12.0606 64.5298 12.6591C63.6359 13.25 62.9427 14.1136 62.4503 15.25C61.9579 16.3788 61.7116 17.75 61.7116 19.3636C61.7116 21.0227 61.9579 22.4167 62.4503 23.5455C62.9503 24.6742 63.6473 25.5265 64.5412 26.1023C65.4351 26.678 66.4692 26.9659 67.6435 26.9659C68.3026 26.9659 68.9124 26.8788 69.473 26.7045C70.0412 26.5303 70.545 26.2765 70.9844 25.9432C71.4238 25.6023 71.7874 25.1894 72.0753 24.7045C72.3707 24.2197 72.5753 23.6667 72.6889 23.0455L77.6662 23.0682C77.5374 24.1364 77.2154 25.1667 76.7003 26.1591C76.1927 27.1439 75.5071 28.0265 74.6435 28.8068C73.7874 29.5795 72.7647 30.1932 71.5753 30.6477C70.3935 31.0947 69.0563 31.3182 67.5639 31.3182C65.4882 31.3182 63.6321 30.8485 61.9957 29.9091C60.367 28.9697 59.0791 27.6098 58.1321 25.8295C57.1927 24.0492 56.723 21.8939 56.723 19.3636C56.723 16.8258 57.2003 14.6667 58.1548 12.8864C59.1094 11.1061 60.4048 9.75 62.0412 8.81818C63.6776 7.87879 65.5185 7.40909 67.5639 7.40909C68.9124 7.40909 70.1624 7.59848 71.3139 7.97727C72.473 8.35606 73.4995 8.90909 74.3935 9.63636C75.2874 10.3561 76.0147 11.2386 76.5753 12.2841C77.1435 13.3295 77.5071 14.5265 77.6662 15.875ZM88.9901 31.3409C87.2249 31.3409 85.6984 30.9659 84.4105 30.2159C83.1302 29.4583 82.1416 28.4053 81.4446 27.0568C80.7476 25.7008 80.3991 24.1288 80.3991 22.3409C80.3991 20.5379 80.7476 18.9621 81.4446 17.6136C82.1416 16.2576 83.1302 15.2045 84.4105 14.4545C85.6984 13.697 87.2249 13.3182 88.9901 13.3182C90.7552 13.3182 92.2779 13.697 93.5582 14.4545C94.8461 15.2045 95.8385 16.2576 96.5355 17.6136C97.2325 18.9621 97.581 20.5379 97.581 22.3409C97.581 24.1288 97.2325 25.7008 96.5355 27.0568C95.8385 28.4053 94.8461 29.4583 93.5582 30.2159C92.2779 30.9659 90.7552 31.3409 88.9901 31.3409ZM89.0128 27.5909C89.8158 27.5909 90.4863 27.3636 91.0241 26.9091C91.562 26.447 91.9673 25.8182 92.2401 25.0227C92.5204 24.2273 92.6605 23.322 92.6605 22.3068C92.6605 21.2917 92.5204 20.3864 92.2401 19.5909C91.9673 18.7955 91.562 18.1667 91.0241 17.7045C90.4863 17.2424 89.8158 17.0114 89.0128 17.0114C88.2022 17.0114 87.5204 17.2424 86.9673 17.7045C86.4219 18.1667 86.009 18.7955 85.7287 19.5909C85.456 20.3864 85.3196 21.2917 85.3196 22.3068C85.3196 23.322 85.456 24.2273 85.7287 25.0227C86.009 25.8182 86.4219 26.447 86.9673 26.9091C87.5204 27.3636 88.2022 27.5909 89.0128 27.5909ZM105.57 20.9091V31H100.729V13.5455H105.342V16.625H105.547C105.933 15.6098 106.581 14.8068 107.49 14.2159C108.399 13.6174 109.501 13.3182 110.797 13.3182C112.009 13.3182 113.066 13.5833 113.967 14.1136C114.869 14.6439 115.57 15.4015 116.07 16.3864C116.57 17.3636 116.82 18.5303 116.82 19.8864V31H111.979V20.75C111.986 19.6818 111.714 18.8485 111.161 18.25C110.607 17.6439 109.846 17.3409 108.876 17.3409C108.225 17.3409 107.649 17.4811 107.149 17.7614C106.657 18.0417 106.27 18.4508 105.99 18.9886C105.717 19.5189 105.577 20.1591 105.57 20.9091ZM125.476 20.9091V31H120.635V13.5455H125.249V16.625H125.453C125.839 15.6098 126.487 14.8068 127.396 14.2159C128.305 13.6174 129.408 13.3182 130.703 13.3182C131.915 13.3182 132.972 13.5833 133.874 14.1136C134.775 14.6439 135.476 15.4015 135.976 16.3864C136.476 17.3636 136.726 18.5303 136.726 19.8864V31H131.885V20.75C131.893 19.6818 131.62 18.8485 131.067 18.25C130.514 17.6439 129.752 17.3409 128.783 17.3409C128.131 17.3409 127.555 17.4811 127.055 17.7614C126.563 18.0417 126.177 18.4508 125.896 18.9886C125.624 19.5189 125.483 20.1591 125.476 20.9091ZM148.496 31.3409C146.7 31.3409 145.155 30.9773 143.859 30.25C142.571 29.5152 141.579 28.4773 140.882 27.1364C140.185 25.7879 139.837 24.1932 139.837 22.3523C139.837 20.5568 140.185 18.9811 140.882 17.625C141.579 16.2689 142.56 15.2121 143.825 14.4545C145.098 13.697 146.59 13.3182 148.303 13.3182C149.454 13.3182 150.526 13.5038 151.518 13.875C152.518 14.2386 153.39 14.7879 154.132 15.5227C154.882 16.2576 155.465 17.1818 155.882 18.2955C156.299 19.4015 156.507 20.697 156.507 22.1818V23.5114H141.768V20.5114H151.95C151.95 19.8144 151.799 19.197 151.496 18.6591C151.193 18.1212 150.772 17.7008 150.234 17.3977C149.704 17.0871 149.087 16.9318 148.382 16.9318C147.647 16.9318 146.996 17.1023 146.428 17.4432C145.867 17.7765 145.428 18.2273 145.109 18.7955C144.791 19.3561 144.628 19.9811 144.621 20.6705V23.5227C144.621 24.3864 144.78 25.1326 145.098 25.7614C145.424 26.3902 145.882 26.875 146.473 27.2159C147.064 27.5568 147.765 27.7273 148.575 27.7273C149.113 27.7273 149.606 27.6515 150.053 27.5C150.5 27.3485 150.882 27.1212 151.2 26.8182C151.518 26.5152 151.761 26.1439 151.928 25.7045L156.405 26C156.178 27.0758 155.712 28.0152 155.007 28.8182C154.31 29.6136 153.409 30.2348 152.303 30.6818C151.204 31.1212 149.935 31.3409 148.496 31.3409ZM167.553 31.3409C165.765 31.3409 164.227 30.9621 162.939 30.2045C161.659 29.4394 160.674 28.3788 159.984 27.0227C159.303 25.6667 158.962 24.1061 158.962 22.3409C158.962 20.553 159.306 18.9848 159.996 17.6364C160.693 16.2803 161.681 15.2235 162.962 14.4659C164.242 13.7008 165.765 13.3182 167.53 13.3182C169.053 13.3182 170.386 13.5947 171.53 14.1477C172.674 14.7008 173.579 15.4773 174.246 16.4773C174.912 17.4773 175.28 18.6515 175.348 20H170.78C170.651 19.1288 170.31 18.428 169.757 17.8977C169.212 17.3598 168.496 17.0909 167.609 17.0909C166.859 17.0909 166.204 17.2955 165.643 17.7045C165.09 18.1061 164.659 18.6932 164.348 19.4659C164.037 20.2386 163.882 21.1742 163.882 22.2727C163.882 23.3864 164.034 24.3333 164.337 25.1136C164.647 25.8939 165.083 26.4886 165.643 26.8977C166.204 27.3068 166.859 27.5114 167.609 27.5114C168.162 27.5114 168.659 27.3977 169.098 27.1705C169.545 26.9432 169.912 26.6136 170.2 26.1818C170.496 25.7424 170.689 25.2159 170.78 24.6023H175.348C175.272 25.9356 174.909 27.1098 174.257 28.125C173.613 29.1326 172.723 29.9205 171.587 30.4886C170.45 31.0568 169.106 31.3409 167.553 31.3409ZM187.732 13.5455V17.1818H177.22V13.5455H187.732ZM179.607 9.36364H184.447V25.6364C184.447 26.0833 184.516 26.4318 184.652 26.6818C184.788 26.9242 184.978 27.0947 185.22 27.1932C185.47 27.2917 185.758 27.3409 186.084 27.3409C186.311 27.3409 186.538 27.322 186.766 27.2841C186.993 27.2386 187.167 27.2045 187.288 27.1818L188.05 30.7841C187.807 30.8598 187.466 30.947 187.027 31.0455C186.588 31.1515 186.054 31.2159 185.425 31.2386C184.258 31.2841 183.235 31.1288 182.357 30.7727C181.485 30.4167 180.807 29.8636 180.322 29.1136C179.838 28.3636 179.599 27.4167 179.607 26.2727V9.36364Z" fill="#0F766E"/>
<path d="M209 21.5V22M217 21.5V22M213 12.5C213.67 12.5 214.35 12.59 215 12.76C216.78 10.76 220.03 9.91999 221.42 10.5C222.82 11.08 221 17.5 221 17.5C221.57 18.57 222 19.74 222 20.94C222 25.4 217.97 28.5 213 28.5C208.03 28.5 204 25.5 204 20.94C204 19.69 204.5 18.54 205 17.5C205 17.5 203.11 11.08 204.5 10.5C205.89 9.91999 209.22 10.73 211 12.73C211.656 12.5788 212.326 12.5016 213 12.5Z" stroke="#0F766E" stroke-width="2" stroke-linecap="round" stroke-linejoin="round"/>
<path d="M212.25 23.75H213.75L213 24.5L212.25 23.75Z" stroke="#0F766E" stroke-width="2" stroke-linecap="round" stroke-linejoin="round"/>
</svg>
